<svg xmlns="http://www.w3.org/2000/svg" preserveAspectRatio="none" viewBox="0 0 100 1"><rect fill="#2563EB" height="0.5731410218535369" width="1" x="0" y="0.4268589781464631"></rect><rect fill="#2563EB" height="0.7345026244864344" width="1" x="1" y="0.26549737551356556"></rect><rect fill="#2563EB" height="0.7086323937711246" width="1" x="2" y="0.29136760622887536"></rect><rect fill="#2563EB" height="0.9204921630978462" width="1" x="3" y="0.0795078369021538"></rect><rect fill="#2563EB" height="0.7044706527176445" width="1" x="4" y="0.29552934728235547"></rect><rect fill="#2563EB" height="0.5642080378444272" width="1" x="5" y="0.4357919621555728"></rect><rect fill="#2563EB" height="0.9592076095911369" width="1" x="6" y="0.040792390408863066"></rect><rect fill="#2563EB" height="0.7265227595940034" width="1" x="7" y="0.27347724040599664"></rect><rect fill="#2563EB" height="0.7013116677300336" width="1" x="8" y="0.2986883322699664"></rect><rect fill="#2563EB" height="0.8876307506318013" width="1" x="9" y="0.1123692493681987"></rect><rect fill="#2563EB" height="0.7090277835694255" width="1" x="10" y="0.29097221643057447"></rect><rect fill="#2563EB" height="0.6239033177094692" width="1" x="11" y="0.37609668229053084"></rect><rect fill="#2563EB" height="0.7889887517654567" width="1" x="12" y="0.2110112482345433"></rect><rect fill="#2563EB" height="0.8768349599376779" width="1" x="13" y="0.1231650400623221"></rect><rect fill="#2563EB" height="0.704757353174117" width="1" x="14" y="0.29524264682588297"></rect><rect fill="#2563EB" height="0.7581406772087823" width="1" x="15" y="0.2418593227912177"></rect><rect fill="#2563EB" height="0.7002639690887806" width="1" x="16" y="0.29973603091121936"></rect><rect fill="#2563EB" height="0.6074894249847909" width="1" x="17" y="0.39251057501520914"></rect><rect fill="#2563EB" height="0.6667995890750777" width="1" x="18" y="0.33320041092492225"></rect><rect fill="#2563EB" height="0.7920586366402782" width="1" x="19" y="0.2079413633597218"></rect><rect fill="#2563EB" height="0.6627394837241306" width="1" x="20" y="0.3372605162758694"></rect><rect fill="#2563EB" height="0.7500397805795873" width="1" x="21" y="0.2499602194204127"></rect><rect fill="#2563EB" height="0.9340287327799399" width="1" x="22" y="0.06597126722006008"></rect><rect fill="#2563EB" height="0.6972304752393955" width="1" x="23" y="0.3027695247606045"></rect><rect fill="#2563EB" height="0.5741875821015203" width="1" x="24" y="0.4258124178984797"></rect><rect fill="#2563EB" height="0.8938533682981472" width="1" x="25" y="0.10614663170185279"></rect><rect fill="#2563EB" height="0.7800290521680161" width="1" x="26" y="0.2199709478319839"></rect><rect fill="#2563EB" height="0.7848128733158899" width="1" x="27" y="0.2151871266841101"></rect><rect fill="#2563EB" height="0.8708362022830923" width="1" x="28" y="0.12916379771690767"></rect><rect fill="#2563EB" height="0.7370685666110793" width="1" x="29" y="0.26293143338892067"></rect><rect fill="#2563EB" height="0.6796912813216893" width="1" x="30" y="0.3203087186783107"></rect><rect fill="#2563EB" height="0.8286786390394293" width="1" x="31" y="0.1713213609605707"></rect><rect fill="#2563EB" height="0.7933239885655918" width="1" x="32" y="0.20667601143440817"></rect><rect fill="#2563EB" height="0.6785153863195837" width="1" x="33" y="0.32148461368041625"></rect><rect fill="#2563EB" height="0.820914232476121" width="1" x="34" y="0.17908576752387895"></rect><rect fill="#2563EB" height="0.8019589109758011" width="1" x="35" y="0.19804108902419892"></rect><rect fill="#2563EB" height="0.8327422205174677" width="1" x="36" y="0.1672577794825323"></rect><rect fill="#2563EB" height="0.8686082010718843" width="1" x="37" y="0.1313917989281157"></rect><rect fill="#2563EB" height="0.9103814004700523" width="1" x="38" y="0.08961859952994766"></rect><rect fill="#2563EB" height="0.6733832596147453" width="1" x="39" y="0.3266167403852547"></rect><rect fill="#2563EB" height="0.8566597581374892" width="1" x="40" y="0.14334024186251082"></rect><rect fill="#2563EB" height="0.943237939526655" width="1" x="41" y="0.05676206047334498"></rect><rect fill="#2563EB" height="0.7446795712586172" width="1" x="42" y="0.25532042874138283"></rect><rect fill="#2563EB" height="0.7205136984973922" width="1" x="43" y="0.2794863015026078"></rect><rect fill="#2563EB" height="0.9848495148236471" width="1" x="44" y="0.015150485176352868"></rect><rect fill="#2563EB" height="0.7883312026574313" width="1" x="45" y="0.21166879734256872"></rect><rect fill="#2563EB" height="0.7234908871972133" width="1" x="46" y="0.27650911280278667"></rect><rect fill="#2563EB" height="0.9436831887911018" width="1" x="47" y="0.0563168112088982"></rect><rect fill="#2563EB" height="0.7704540659105061" width="1" x="48" y="0.22954593408949386"></rect><rect fill="#2563EB" height="0.8158344911672569" width="1" x="49" y="0.18416550883274307"></rect><rect fill="#2563EB" height="0.7891813105251445" width="1" x="50" y="0.2108186894748555"></rect><rect fill="#2563EB" height="0.6021994752521995" width="1" x="51" y="0.3978005247478005"></rect><rect fill="#2563EB" height="0.48813954681842286" width="1" x="52" y="0.5118604531815771"></rect><rect fill="#2563EB" height="0.5369759904292138" width="1" x="53" y="0.46302400957078615"></rect><rect fill="#2563EB" height="0.5211849259667735" width="1" x="54" y="0.47881507403322654"></rect><rect fill="#2563EB" height="0.6309941180982178" width="1" x="55" y="0.3690058819017822"></rect><rect fill="#2563EB" height="0.59837456501799" width="1" x="56" y="0.40162543498201"></rect><rect fill="#2563EB" height="0.5445229656746041" width="1" x="57" y="0.4554770343253959"></rect><rect fill="#2563EB" height="0.6342429104015764" width="1" x="58" y="0.36575708959842357"></rect><rect fill="#2563EB" height="0.5923229294646832" width="1" x="59" y="0.40767707053531677"></rect><rect fill="#2563EB" height="0.5002555875766189" width="1" x="60" y="0.4997444124233811"></rect><rect fill="#2563EB" height="0.5562928498988575" width="1" x="61" y="0.4437071501011425"></rect><rect fill="#2563EB" height="0.582218504681268" width="1" x="62" y="0.417781495318732"></rect><rect fill="#2563EB" height="0.6072227530736615" width="1" x="63" y="0.39277724692633853"></rect><rect fill="#2563EB" height="0.5653045384051367" width="1" x="64" y="0.4346954615948633"></rect><rect fill="#2563EB" height="0.61821314888973" width="1" x="65" y="0.38178685111027"></rect><rect fill="#2563EB" height="0.605128349867439" width="1" x="66" y="0.394871650132561"></rect><rect fill="#2563EB" height="0.562313865450004" width="1" x="67" y="0.43768613454999605"></rect><rect fill="#2563EB" height="0.652708091650398" width="1" x="68" y="0.347291908349602"></rect><rect fill="#2563EB" height="0.5890909600063567" width="1" x="69" y="0.41090903999364325"></rect><rect fill="#2563EB" height="0.9176597895572325" width="1" x="70" y="0.08234021044276751"></rect><rect fill="#2563EB" height="0.7396356950971912" width="1" x="71" y="0.2603643049028088"></rect><rect fill="#2563EB" height="0.962778919663788" width="1" x="72" y="0.037221080336211965"></rect><rect fill="#2563EB" height="0.7983691758640067" width="1" x="73" y="0.20163082413599331"></rect><rect fill="#2563EB" height="0.7106597275125308" width="1" x="74" y="0.2893402724874692"></rect><rect fill="#2563EB" height="0.8772456244888939" width="1" x="75" y="0.12275437551110613"></rect><rect fill="#2563EB" height="0.9130716698372189" width="1" x="76" y="0.08692833016278112"></rect><rect fill="#2563EB" height="0.7906530836647586" width="1" x="77" y="0.20934691633524138"></rect><rect fill="#2563EB" height="0.8891602940273419" width="1" x="78" y="0.11083970597265813"></rect><rect fill="#2563EB" height="0.9782165804933299" width="1" x="79" y="0.021783419506670065"></rect><rect fill="#2563EB" height="0.7834189122960955" width="1" x="80" y="0.2165810877039045"></rect><rect fill="#2563EB" height="0.7911663468638938" width="1" x="81" y="0.20883365313610625"></rect><rect fill="#2563EB" height="1" width="1" x="82" y="0"></rect><rect fill="#2563EB" height="0.8082256134261231" width="1" x="83" y="0.1917743865738769"></rect><rect fill="#2563EB" height="0.7644663376956153" width="1" x="84" y="0.23553366230438466"></rect><rect fill="#2563EB" height="0.9957337479630276" width="1" x="85" y="0.0042662520369723955"></rect><rect fill="#2563EB" height="0.7967234444212504" width="1" x="86" y="0.20327655557874957"></rect><rect fill="#2563EB" height="0.7954820735132722" width="1" x="87" y="0.20451792648672784"></rect><rect fill="#2563EB" height="0.9584277720521168" width="1" x="88" y="0.04157222794788318"></rect><rect fill="#2563EB" height="0.8706977209955632" width="1" x="89" y="0.1293022790044368"></rect><rect fill="#2563EB" height="0.8182437588820477" width="1" x="90" y="0.1817562411179523"></rect><rect fill="#2563EB" height="0.9366405673787718" width="1" x="91" y="0.06335943262122823"></rect><rect fill="#2563EB" height="0.8717197955923239" width="1" x="92" y="0.12828020440767607"></rect><rect fill="#2563EB" height="0.8560944110974886" width="1" x="93" y="0.14390558890251137"></rect><rect fill="#2563EB" height="0.9126938984335274" width="1" x="94" y="0.08730610156647256"></rect><rect fill="#2563EB" height="0.10138292119163532" width="1" x="95" y="0.8986170788083647"></rect><rect fill="#2563EB" height="0.007305663909923561" width="1" x="96" y="0.9926943360900764"></rect><rect fill="#2563EB" height="0.0024757821909203045" width="1" x="97" y="0.9975242178090797"></rect><rect fill="#2563EB" height="0.0008110497643431178" width="1" x="98" y="0.9991889502356569"></rect><rect fill="#2563EB" height="0.0002543772758766929" width="1" x="99" y="0.9997456227241233"></rect></svg>