<svg xmlns="http://www.w3.org/2000/svg" preserveAspectRatio="none" viewBox="0 0 100 1"><rect fill="#2563EB" height="0.21109037131871647" width="1" x="0" y="0.7889096286812836"></rect><rect fill="#2563EB" height="0.41965260375059" width="1" x="1" y="0.58034739624941"></rect><rect fill="#2563EB" height="0.502505747664269" width="1" x="2" y="0.49749425233573097"></rect><rect fill="#2563EB" height="0.3831374772216218" width="1" x="3" y="0.6168625227783782"></rect><rect fill="#2563EB" height="0.4241965427779117" width="1" x="4" y="0.5758034572220883"></rect><rect fill="#2563EB" height="0.44973659901513274" width="1" x="5" y="0.5502634009848673"></rect><rect fill="#2563EB" height="0.44709927660775733" width="1" x="6" y="0.5529007233922427"></rect><rect fill="#2563EB" height="0.634048134733192" width="1" x="7" y="0.365951865266808"></rect><rect fill="#2563EB" height="0.7034860829059925" width="1" x="8" y="0.29651391709400754"></rect><rect fill="#2563EB" height="0.5890589025465884" width="1" x="9" y="0.41094109745341156"></rect><rect fill="#2563EB" height="0.5367576814349084" width="1" x="10" y="0.46324231856509157"></rect><rect fill="#2563EB" height="0.6627027531722953" width="1" x="11" y="0.3372972468277047"></rect><rect fill="#2563EB" height="0.6450223609101275" width="1" x="12" y="0.35497763908987245"></rect><rect fill="#2563EB" height="0.6193933945523692" width="1" x="13" y="0.3806066054476308"></rect><rect fill="#2563EB" height="0.6594128029925194" width="1" x="14" y="0.34058719700748064"></rect><rect fill="#2563EB" height="0.6623611296018677" width="1" x="15" y="0.33763887039813234"></rect><rect fill="#2563EB" height="0.6038554264107779" width="1" x="16" y="0.39614457358922206"></rect><rect fill="#2563EB" height="0.6082565203431909" width="1" x="17" y="0.3917434796568091"></rect><rect fill="#2563EB" height="0.6906023212315432" width="1" x="18" y="0.3093976787684568"></rect><rect fill="#2563EB" height="0.6222970992433906" width="1" x="19" y="0.3777029007566094"></rect><rect fill="#2563EB" height="0.5391481257122762" width="1" x="20" y="0.4608518742877238"></rect><rect fill="#2563EB" height="0.7482897898073809" width="1" x="21" y="0.2517102101926191"></rect><rect fill="#2563EB" height="0.7472024499351891" width="1" x="22" y="0.25279755006481086"></rect><rect fill="#2563EB" height="0.5590271651209059" width="1" x="23" y="0.4409728348790941"></rect><rect fill="#2563EB" height="0.7064162973400846" width="1" x="24" y="0.2935837026599154"></rect><rect fill="#2563EB" height="0.7707585161459888" width="1" x="25" y="0.22924148385401122"></rect><rect fill="#2563EB" height="0.6298292910924213" width="1" x="26" y="0.37017070890757875"></rect><rect fill="#2563EB" height="0.760805518927857" width="1" x="27" y="0.23919448107214303"></rect><rect fill="#2563EB" height="0.6715772875059796" width="1" x="28" y="0.32842271249402044"></rect><rect fill="#2563EB" height="0.6892490414338703" width="1" x="29" y="0.31075095856612966"></rect><rect fill="#2563EB" height="0.6189106937650293" width="1" x="30" y="0.3810893062349707"></rect><rect fill="#2563EB" height="0.6879549579702348" width="1" x="31" y="0.31204504202976524"></rect><rect fill="#2563EB" height="0.6568630553390709" width="1" x="32" y="0.34313694466092914"></rect><rect fill="#2563EB" height="0.5705693600614745" width="1" x="33" y="0.4294306399385255"></rect><rect fill="#2563EB" height="0.6709966807323055" width="1" x="34" y="0.32900331926769455"></rect><rect fill="#2563EB" height="0.6729003904570928" width="1" x="35" y="0.3270996095429072"></rect><rect fill="#2563EB" height="0.6460931336707717" width="1" x="36" y="0.3539068663292283"></rect><rect fill="#2563EB" height="0.5789892921555404" width="1" x="37" y="0.4210107078444596"></rect><rect fill="#2563EB" height="0.6664817963536797" width="1" x="38" y="0.33351820364632034"></rect><rect fill="#2563EB" height="0.6601917799645904" width="1" x="39" y="0.33980822003540956"></rect><rect fill="#2563EB" height="0.5755985607718875" width="1" x="40" y="0.42440143922811246"></rect><rect fill="#2563EB" height="0.7332935880691375" width="1" x="41" y="0.26670641193086253"></rect><rect fill="#2563EB" height="0.7910686717072266" width="1" x="42" y="0.2089313282927734"></rect><rect fill="#2563EB" height="0.6900573390066151" width="1" x="43" y="0.30994266099338486"></rect><rect fill="#2563EB" height="0.6313530107694982" width="1" x="44" y="0.36864698923050176"></rect><rect fill="#2563EB" height="0.791834220776103" width="1" x="45" y="0.208165779223897"></rect><rect fill="#2563EB" height="0.7267099729957813" width="1" x="46" y="0.27329002700421867"></rect><rect fill="#2563EB" height="0.8179282644407088" width="1" x="47" y="0.18207173555929124"></rect><rect fill="#2563EB" height="0.5582717257792837" width="1" x="48" y="0.44172827422071625"></rect><rect fill="#2563EB" height="0.7486896525052807" width="1" x="49" y="0.25131034749471926"></rect><rect fill="#2563EB" height="0.7487437703311229" width="1" x="50" y="0.25125622966887706"></rect><rect fill="#2563EB" height="0.693390948477647" width="1" x="51" y="0.30660905152235296"></rect><rect fill="#2563EB" height="0.6352882607734369" width="1" x="52" y="0.3647117392265631"></rect><rect fill="#2563EB" height="0.6607667915698214" width="1" x="53" y="0.33923320843017857"></rect><rect fill="#2563EB" height="0.6724709945028187" width="1" x="54" y="0.32752900549718134"></rect><rect fill="#2563EB" height="0.7228185412714542" width="1" x="55" y="0.2771814587285458"></rect><rect fill="#2563EB" height="1" width="1" x="56" y="0"></rect><rect fill="#2563EB" height="0.9617789566571276" width="1" x="57" y="0.03822104334287235"></rect><rect fill="#2563EB" height="0.8921810239075849" width="1" x="58" y="0.10781897609241509"></rect><rect fill="#2563EB" height="0.8437063939989213" width="1" x="59" y="0.15629360600107867"></rect><rect fill="#2563EB" height="0.9397125854774401" width="1" x="60" y="0.06028741452255992"></rect><rect fill="#2563EB" height="0.8779354866198138" width="1" x="61" y="0.1220645133801862"></rect><rect fill="#2563EB" height="0.843832607693702" width="1" x="62" y="0.15616739230629795"></rect><rect fill="#2563EB" height="0.8490584513259325" width="1" x="63" y="0.1509415486740675"></rect><rect fill="#2563EB" height="0.6785070728939671" width="1" x="64" y="0.32149292710603294"></rect><rect fill="#2563EB" height="0.5690847350276121" width="1" x="65" y="0.43091526497238786"></rect><rect fill="#2563EB" height="0.6211924152238234" width="1" x="66" y="0.3788075847761766"></rect><rect fill="#2563EB" height="0.6731885879115059" width="1" x="67" y="0.32681141208849407"></rect><rect fill="#2563EB" height="0.6433015380852597" width="1" x="68" y="0.3566984619147403"></rect><rect fill="#2563EB" height="0.6129418656239801" width="1" x="69" y="0.3870581343760199"></rect><rect fill="#2563EB" height="0.6448211065870232" width="1" x="70" y="0.3551788934129768"></rect><rect fill="#2563EB" height="0.6465547815557076" width="1" x="71" y="0.35344521844429244"></rect><rect fill="#2563EB" height="0.5487216149673767" width="1" x="72" y="0.4512783850326233"></rect><rect fill="#2563EB" height="0.6716414397993181" width="1" x="73" y="0.3283585602006819"></rect><rect fill="#2563EB" height="0.6682732744406371" width="1" x="74" y="0.3317267255593629"></rect><rect fill="#2563EB" height="0.586565451512099" width="1" x="75" y="0.41343454848790095"></rect><rect fill="#2563EB" height="0.5414015051014649" width="1" x="76" y="0.4585984948985351"></rect><rect fill="#2563EB" height="0.7618531410346283" width="1" x="77" y="0.2381468589653717"></rect><rect fill="#2563EB" height="0.7970728913245851" width="1" x="78" y="0.20292710867541486"></rect><rect fill="#2563EB" height="0.6580823520469251" width="1" x="79" y="0.3419176479530749"></rect><rect fill="#2563EB" height="0.6950146035920524" width="1" x="80" y="0.30498539640794764"></rect><rect fill="#2563EB" height="0.8000062300751946" width="1" x="81" y="0.19999376992480544"></rect><rect fill="#2563EB" height="0.6932450779728814" width="1" x="82" y="0.3067549220271186"></rect><rect fill="#2563EB" height="0.7219519836680468" width="1" x="83" y="0.2780480163319532"></rect><rect fill="#2563EB" height="0.32916622587756966" width="1" x="84" y="0.6708337741224304"></rect><rect fill="#2563EB" height="0.370970534876779" width="1" x="85" y="0.629029465123221"></rect><rect fill="#2563EB" height="0.37396941301057385" width="1" x="86" y="0.6260305869894262"></rect><rect fill="#2563EB" height="0.44356848274470995" width="1" x="87" y="0.55643151725529"></rect><rect fill="#2563EB" height="0.36637967358382056" width="1" x="88" y="0.6336203264161795"></rect><rect fill="#2563EB" height="0.38682377703148235" width="1" x="89" y="0.6131762229685176"></rect><rect fill="#2563EB" height="0.4118521248124535" width="1" x="90" y="0.5881478751875465"></rect><rect fill="#2563EB" height="0.35179161123469943" width="1" x="91" y="0.6482083887653005"></rect><rect fill="#2563EB" height="0.40062424729125434" width="1" x="92" y="0.5993757527087457"></rect><rect fill="#2563EB" height="0.3874776141384201" width="1" x="93" y="0.6125223858615799"></rect><rect fill="#2563EB" height="0.3694097293870419" width="1" x="94" y="0.630590270612958"></rect><rect fill="#2563EB" height="0.4102101054294767" width="1" x="95" y="0.5897898945705233"></rect><rect fill="#2563EB" height="0.4148456916334479" width="1" x="96" y="0.585154308366552"></rect><rect fill="#2563EB" height="0.24082615334005533" width="1" x="97" y="0.7591738466599447"></rect><rect fill="#2563EB" height="0.06411874971931997" width="1" x="98" y="0.93588125028068"></rect><rect fill="#2563EB" height="0.011169450226697544" width="1" x="99" y="0.9888305497733024"></rect></svg>