<svg xmlns="http://www.w3.org/2000/svg" preserveAspectRatio="none" viewBox="0 0 100 1"><rect fill="#2563EB" height="0.11905452578702645" width="1" x="0" y="0.8809454742129735"></rect><rect fill="#2563EB" height="0.516847834645358" width="1" x="1" y="0.483152165354642"></rect><rect fill="#2563EB" height="0.6427806414290056" width="1" x="2" y="0.3572193585709944"></rect><rect fill="#2563EB" height="0.5249017250370925" width="1" x="3" y="0.47509827496290746"></rect><rect fill="#2563EB" height="0.2904267820817657" width="1" x="4" y="0.7095732179182344"></rect><rect fill="#2563EB" height="0.4534042182580048" width="1" x="5" y="0.5465957817419952"></rect><rect fill="#2563EB" height="0.5602022042782178" width="1" x="6" y="0.43979779572178224"></rect><rect fill="#2563EB" height="0.7277871008944831" width="1" x="7" y="0.27221289910551694"></rect><rect fill="#2563EB" height="0.6028685818403037" width="1" x="8" y="0.3971314181596963"></rect><rect fill="#2563EB" height="0.6713582318734079" width="1" x="9" y="0.32864176812659207"></rect><rect fill="#2563EB" height="0.61782575127436" width="1" x="10" y="0.38217424872564"></rect><rect fill="#2563EB" height="0.7579750846968324" width="1" x="11" y="0.2420249153031676"></rect><rect fill="#2563EB" height="0.4045285861566822" width="1" x="12" y="0.5954714138433178"></rect><rect fill="#2563EB" height="0.7615270024938057" width="1" x="13" y="0.23847299750619433"></rect><rect fill="#2563EB" height="0.5611442340862145" width="1" x="14" y="0.4388557659137855"></rect><rect fill="#2563EB" height="0.6715921985410888" width="1" x="15" y="0.32840780145891124"></rect><rect fill="#2563EB" height="0.613062649522548" width="1" x="16" y="0.38693735047745204"></rect><rect fill="#2563EB" height="0.7380007421191631" width="1" x="17" y="0.2619992578808369"></rect><rect fill="#2563EB" height="0.42299270099343483" width="1" x="18" y="0.5770072990065651"></rect><rect fill="#2563EB" height="0.646072797200278" width="1" x="19" y="0.353927202799722"></rect><rect fill="#2563EB" height="0.6927536017741563" width="1" x="20" y="0.30724639822584365"></rect><rect fill="#2563EB" height="0.7089422683298371" width="1" x="21" y="0.2910577316701629"></rect><rect fill="#2563EB" height="0.387980956940831" width="1" x="22" y="0.612019043059169"></rect><rect fill="#2563EB" height="0.9021243776949871" width="1" x="23" y="0.0978756223050129"></rect><rect fill="#2563EB" height="1" width="1" x="24" y="0"></rect><rect fill="#2563EB" height="0.8771456106443812" width="1" x="25" y="0.12285438935561876"></rect><rect fill="#2563EB" height="0.8359076481855096" width="1" x="26" y="0.16409235181449044"></rect><rect fill="#2563EB" height="0.6113780808418114" width="1" x="27" y="0.38862191915818856"></rect><rect fill="#2563EB" height="0.9665877320967176" width="1" x="28" y="0.033412267903282444"></rect><rect fill="#2563EB" height="0.7539167825237258" width="1" x="29" y="0.24608321747627415"></rect><rect fill="#2563EB" height="0.47600070344688644" width="1" x="30" y="0.5239992965531135"></rect><rect fill="#2563EB" height="0.47966057992278394" width="1" x="31" y="0.520339420077216"></rect><rect fill="#2563EB" height="0.804489425965784" width="1" x="32" y="0.195510574034216"></rect><rect fill="#2563EB" height="0.7596458043758714" width="1" x="33" y="0.24035419562412863"></rect><rect fill="#2563EB" height="0.66549376244447" width="1" x="34" y="0.33450623755553"></rect><rect fill="#2563EB" height="0.7398697819617238" width="1" x="35" y="0.2601302180382762"></rect><rect fill="#2563EB" height="0.5397124427183804" width="1" x="36" y="0.46028755728161963"></rect><rect fill="#2563EB" height="0.6103612061168671" width="1" x="37" y="0.38963879388313294"></rect><rect fill="#2563EB" height="0.7568889443836633" width="1" x="38" y="0.24311105561633672"></rect><rect fill="#2563EB" height="0.6565346711483946" width="1" x="39" y="0.3434653288516054"></rect><rect fill="#2563EB" height="0.7598681890325406" width="1" x="40" y="0.2401318109674594"></rect><rect fill="#2563EB" height="0.4726748218208961" width="1" x="41" y="0.527325178179104"></rect><rect fill="#2563EB" height="0.5784675530830617" width="1" x="42" y="0.42153244691693825"></rect><rect fill="#2563EB" height="0.40864643255325667" width="1" x="43" y="0.5913535674467434"></rect><rect fill="#2563EB" height="0.5891257334417738" width="1" x="44" y="0.41087426655822623"></rect><rect fill="#2563EB" height="0.6006011261994391" width="1" x="45" y="0.39939887380056094"></rect><rect fill="#2563EB" height="0.7394693527605656" width="1" x="46" y="0.2605306472394344"></rect><rect fill="#2563EB" height="0.6177638689130225" width="1" x="47" y="0.3822361310869775"></rect><rect fill="#2563EB" height="0.899327941656926" width="1" x="48" y="0.10067205834307402"></rect><rect fill="#2563EB" height="0.720266855542198" width="1" x="49" y="0.27973314445780195"></rect><rect fill="#2563EB" height="0.8233955102742302" width="1" x="50" y="0.1766044897257698"></rect><rect fill="#2563EB" height="0.8639106240922567" width="1" x="51" y="0.13608937590774328"></rect><rect fill="#2563EB" height="0.5242548100448625" width="1" x="52" y="0.4757451899551375"></rect><rect fill="#2563EB" height="0.736965188556191" width="1" x="53" y="0.263034811443809"></rect><rect fill="#2563EB" height="0.6787104811485541" width="1" x="54" y="0.32128951885144585"></rect><rect fill="#2563EB" height="0.6343883762861798" width="1" x="55" y="0.36561162371382017"></rect><rect fill="#2563EB" height="0.8306376392224956" width="1" x="56" y="0.16936236077750444"></rect><rect fill="#2563EB" height="0.6972445115879599" width="1" x="57" y="0.30275548841204014"></rect><rect fill="#2563EB" height="0.6867933019966054" width="1" x="58" y="0.3132066980033946"></rect><rect fill="#2563EB" height="0.4928837862470969" width="1" x="59" y="0.5071162137529031"></rect><rect fill="#2563EB" height="0.4142737180160225" width="1" x="60" y="0.5857262819839775"></rect><rect fill="#2563EB" height="0.5555711917605961" width="1" x="61" y="0.4444288082394039"></rect><rect fill="#2563EB" height="0.4752347678333971" width="1" x="62" y="0.524765232166603"></rect><rect fill="#2563EB" height="0.27551346756845246" width="1" x="63" y="0.7244865324315475"></rect><rect fill="#2563EB" height="0.43870553622188746" width="1" x="64" y="0.5612944637781125"></rect><rect fill="#2563EB" height="0.4337771639730541" width="1" x="65" y="0.5662228360269459"></rect><rect fill="#2563EB" height="0.5772164931105114" width="1" x="66" y="0.4227835068894886"></rect><rect fill="#2563EB" height="0.5860372438845959" width="1" x="67" y="0.4139627561154041"></rect><rect fill="#2563EB" height="0.5191575778811569" width="1" x="68" y="0.4808424221188431"></rect><rect fill="#2563EB" height="0.4733541437070358" width="1" x="69" y="0.5266458562929641"></rect><rect fill="#2563EB" height="0.8300318001372561" width="1" x="70" y="0.16996819986274392"></rect><rect fill="#2563EB" height="0.6630456314258129" width="1" x="71" y="0.33695436857418715"></rect><rect fill="#2563EB" height="0.4712081180498021" width="1" x="72" y="0.5287918819501979"></rect><rect fill="#2563EB" height="0.38936082319908283" width="1" x="73" y="0.6106391768009172"></rect><rect fill="#2563EB" height="0.5627505276294298" width="1" x="74" y="0.4372494723705702"></rect><rect fill="#2563EB" height="0.44685165545798544" width="1" x="75" y="0.5531483445420146"></rect><rect fill="#2563EB" height="0.6718612271304705" width="1" x="76" y="0.3281387728695295"></rect><rect fill="#2563EB" height="0.5251515538261682" width="1" x="77" y="0.4748484461738318"></rect><rect fill="#2563EB" height="0.821335603529129" width="1" x="78" y="0.17866439647087096"></rect><rect fill="#2563EB" height="0.7557353123776486" width="1" x="79" y="0.24426468762235143"></rect><rect fill="#2563EB" height="0.5394599918824805" width="1" x="80" y="0.4605400081175195"></rect><rect fill="#2563EB" height="0.6579626958502912" width="1" x="81" y="0.3420373041497088"></rect><rect fill="#2563EB" height="0.5386962103762278" width="1" x="82" y="0.46130378962377216"></rect><rect fill="#2563EB" height="0.34288058845010516" width="1" x="83" y="0.6571194115498948"></rect><rect fill="#2563EB" height="0.6685991927627002" width="1" x="84" y="0.3314008072372998"></rect><rect fill="#2563EB" height="0.48239177774898984" width="1" x="85" y="0.5176082222510101"></rect><rect fill="#2563EB" height="0.9196664585657418" width="1" x="86" y="0.0803335414342582"></rect><rect fill="#2563EB" height="0.7343770807209795" width="1" x="87" y="0.2656229192790205"></rect><rect fill="#2563EB" height="0.5068264813596103" width="1" x="88" y="0.4931735186403897"></rect><rect fill="#2563EB" height="0.8768130480185676" width="1" x="89" y="0.12318695198143237"></rect><rect fill="#2563EB" height="0.7537867510932738" width="1" x="90" y="0.24621324890672625"></rect><rect fill="#2563EB" height="0.42593108037892186" width="1" x="91" y="0.5740689196210782"></rect><rect fill="#2563EB" height="0.47856343917831007" width="1" x="92" y="0.52143656082169"></rect><rect fill="#2563EB" height="0.3714148635299196" width="1" x="93" y="0.6285851364700804"></rect><rect fill="#2563EB" height="0.27215982794591587" width="1" x="94" y="0.7278401720540841"></rect><rect fill="#2563EB" height="0.5431749815997711" width="1" x="95" y="0.45682501840022893"></rect><rect fill="#2563EB" height="0.19402214211610122" width="1" x="96" y="0.8059778578838988"></rect><rect fill="#2563EB" height="0.06940319668267149" width="1" x="97" y="0.9305968033173285"></rect><rect fill="#2563EB" height="0.0007868834929658322" width="1" x="98" y="0.9992131165070341"></rect><rect fill="#2563EB" height="0.0000976355333165633" width="1" x="99" y="0.9999023644666835"></rect></svg>