<svg xmlns="http://www.w3.org/2000/svg" preserveAspectRatio="none" viewBox="0 0 100 1"><rect fill="#2563EB" height="0.09856190532080829" width="1" x="0" y="0.9014380946791917"></rect><rect fill="#2563EB" height="0.14172886849817032" width="1" x="1" y="0.8582711315018297"></rect><rect fill="#2563EB" height="0.1358284791419251" width="1" x="2" y="0.8641715208580749"></rect><rect fill="#2563EB" height="0.14433848649675987" width="1" x="3" y="0.8556615135032402"></rect><rect fill="#2563EB" height="0.1519224420167577" width="1" x="4" y="0.8480775579832422"></rect><rect fill="#2563EB" height="0.1551265275531044" width="1" x="5" y="0.8448734724468956"></rect><rect fill="#2563EB" height="0.15686960301302086" width="1" x="6" y="0.8431303969869791"></rect><rect fill="#2563EB" height="0.15142438743388334" width="1" x="7" y="0.8485756125661167"></rect><rect fill="#2563EB" height="0.3162510015156193" width="1" x="8" y="0.6837489984843808"></rect><rect fill="#2563EB" height="0.37958320767320675" width="1" x="9" y="0.6204167923267933"></rect><rect fill="#2563EB" height="0.3426323163668492" width="1" x="10" y="0.6573676836331508"></rect><rect fill="#2563EB" height="0.34728711549015195" width="1" x="11" y="0.652712884509848"></rect><rect fill="#2563EB" height="0.28563202893229733" width="1" x="12" y="0.7143679710677027"></rect><rect fill="#2563EB" height="0.3605105453305275" width="1" x="13" y="0.6394894546694725"></rect><rect fill="#2563EB" height="0.32802101956639124" width="1" x="14" y="0.6719789804336087"></rect><rect fill="#2563EB" height="0.4378532926509635" width="1" x="15" y="0.5621467073490365"></rect><rect fill="#2563EB" height="0.5797725294335567" width="1" x="16" y="0.4202274705664433"></rect><rect fill="#2563EB" height="0.5791406664789992" width="1" x="17" y="0.4208593335210008"></rect><rect fill="#2563EB" height="0.5286147376896149" width="1" x="18" y="0.47138526231038513"></rect><rect fill="#2563EB" height="0.5680417615545666" width="1" x="19" y="0.43195823844543335"></rect><rect fill="#2563EB" height="0.7642927089063593" width="1" x="20" y="0.23570729109364075"></rect><rect fill="#2563EB" height="0.7278929485896822" width="1" x="21" y="0.27210705141031777"></rect><rect fill="#2563EB" height="0.6729319542438009" width="1" x="22" y="0.3270680457561991"></rect><rect fill="#2563EB" height="1" width="1" x="23" y="0"></rect><rect fill="#2563EB" height="0.7152696398541675" width="1" x="24" y="0.28473036014583253"></rect><rect fill="#2563EB" height="0.7003585887578749" width="1" x="25" y="0.29964141124212507"></rect><rect fill="#2563EB" height="0.5778038095873491" width="1" x="26" y="0.4221961904126509"></rect><rect fill="#2563EB" height="0.596191317469942" width="1" x="27" y="0.40380868253005797"></rect><rect fill="#2563EB" height="0.8902339207836591" width="1" x="28" y="0.10976607921634085"></rect><rect fill="#2563EB" height="0.6315839576383347" width="1" x="29" y="0.36841604236166525"></rect><rect fill="#2563EB" height="0.7071350622437909" width="1" x="30" y="0.29286493775620914"></rect><rect fill="#2563EB" height="0.9802859690105957" width="1" x="31" y="0.019714030989404274"></rect><rect fill="#2563EB" height="0.5382616136179882" width="1" x="32" y="0.4617383863820118"></rect><rect fill="#2563EB" height="0.843397921147327" width="1" x="33" y="0.15660207885267297"></rect><rect fill="#2563EB" height="0.5752145215160896" width="1" x="34" y="0.42478547848391035"></rect><rect fill="#2563EB" height="0.5720533858081508" width="1" x="35" y="0.4279466141918492"></rect><rect fill="#2563EB" height="0.5549875805992276" width="1" x="36" y="0.4450124194007724"></rect><rect fill="#2563EB" height="0.6111130716844159" width="1" x="37" y="0.38888692831558413"></rect><rect fill="#2563EB" height="0.7423796226092328" width="1" x="38" y="0.25762037739076715"></rect><rect fill="#2563EB" height="0.9114124557310019" width="1" x="39" y="0.08858754426899806"></rect><rect fill="#2563EB" height="0.5999662231605479" width="1" x="40" y="0.40003377683945207"></rect><rect fill="#2563EB" height="0.8195381473209308" width="1" x="41" y="0.18046185267906922"></rect><rect fill="#2563EB" height="0.5665924616555774" width="1" x="42" y="0.4334075383444226"></rect><rect fill="#2563EB" height="0.5177034522220672" width="1" x="43" y="0.48229654777793285"></rect><rect fill="#2563EB" height="0.5001791979644971" width="1" x="44" y="0.49982080203550294"></rect><rect fill="#2563EB" height="0.5920909430511674" width="1" x="45" y="0.4079090569488326"></rect><rect fill="#2563EB" height="0.6986249270754183" width="1" x="46" y="0.30137507292458166"></rect><rect fill="#2563EB" height="0.8847565700299024" width="1" x="47" y="0.11524342997009762"></rect><rect fill="#2563EB" height="0.4096137948525136" width="1" x="48" y="0.5903862051474864"></rect><rect fill="#2563EB" height="0.36546468992799425" width="1" x="49" y="0.6345353100720057"></rect><rect fill="#2563EB" height="0.34918776384079586" width="1" x="50" y="0.6508122361592041"></rect><rect fill="#2563EB" height="0.6486606384289053" width="1" x="51" y="0.3513393615710947"></rect><rect fill="#2563EB" height="0.48200813027384254" width="1" x="52" y="0.5179918697261574"></rect><rect fill="#2563EB" height="0.45245947507972806" width="1" x="53" y="0.5475405249202719"></rect><rect fill="#2563EB" height="0.3970750881961651" width="1" x="54" y="0.6029249118038349"></rect><rect fill="#2563EB" height="0.6045810783482841" width="1" x="55" y="0.3954189216517159"></rect><rect fill="#2563EB" height="0.6744656489137502" width="1" x="56" y="0.32553435108624984"></rect><rect fill="#2563EB" height="0.6161352857215732" width="1" x="57" y="0.38386471427842683"></rect><rect fill="#2563EB" height="0.6399637923442589" width="1" x="58" y="0.36003620765574107"></rect><rect fill="#2563EB" height="0.7153190626974619" width="1" x="59" y="0.2846809373025381"></rect><rect fill="#2563EB" height="0.6556333573786638" width="1" x="60" y="0.3443666426213362"></rect><rect fill="#2563EB" height="0.6676411952795652" width="1" x="61" y="0.3323588047204348"></rect><rect fill="#2563EB" height="0.7390683430844247" width="1" x="62" y="0.2609316569155753"></rect><rect fill="#2563EB" height="0.9443374962055882" width="1" x="63" y="0.055662503794411844"></rect><rect fill="#2563EB" height="0.6296233770572621" width="1" x="64" y="0.3703766229427379"></rect><rect fill="#2563EB" height="0.5421102868031982" width="1" x="65" y="0.45788971319680183"></rect><rect fill="#2563EB" height="0.6726096901800044" width="1" x="66" y="0.3273903098199956"></rect><rect fill="#2563EB" height="0.6759776598839321" width="1" x="67" y="0.3240223401160679"></rect><rect fill="#2563EB" height="0.6054732087406209" width="1" x="68" y="0.39452679125937906"></rect><rect fill="#2563EB" height="0.6805604466466907" width="1" x="69" y="0.3194395533533093"></rect><rect fill="#2563EB" height="0.8058093299820449" width="1" x="70" y="0.1941906700179551"></rect><rect fill="#2563EB" height="0.9061850683864787" width="1" x="71" y="0.09381493161352128"></rect><rect fill="#2563EB" height="0.6941397543910551" width="1" x="72" y="0.30586024560894487"></rect><rect fill="#2563EB" height="0.7011724218951539" width="1" x="73" y="0.29882757810484606"></rect><rect fill="#2563EB" height="0.5765144275701597" width="1" x="74" y="0.4234855724298403"></rect><rect fill="#2563EB" height="0.567795465807074" width="1" x="75" y="0.43220453419292604"></rect><rect fill="#2563EB" height="0.6870659747369899" width="1" x="76" y="0.31293402526301006"></rect><rect fill="#2563EB" height="0.7946668145337489" width="1" x="77" y="0.20533318546625112"></rect><rect fill="#2563EB" height="0.9864793463118935" width="1" x="78" y="0.01352065368810651"></rect><rect fill="#2563EB" height="0.7118643623452612" width="1" x="79" y="0.2881356376547388"></rect><rect fill="#2563EB" height="0.5256687122590336" width="1" x="80" y="0.47433128774096645"></rect><rect fill="#2563EB" height="0.432177943629067" width="1" x="81" y="0.5678220563709331"></rect><rect fill="#2563EB" height="0.4782807706474276" width="1" x="82" y="0.5217192293525724"></rect><rect fill="#2563EB" height="0.46393083056846784" width="1" x="83" y="0.5360691694315322"></rect><rect fill="#2563EB" height="0.4898908841450353" width="1" x="84" y="0.5101091158549647"></rect><rect fill="#2563EB" height="0.7474319585472374" width="1" x="85" y="0.25256804145276257"></rect><rect fill="#2563EB" height="0.8473592368941335" width="1" x="86" y="0.1526407631058665"></rect><rect fill="#2563EB" height="0.659782927370067" width="1" x="87" y="0.34021707262993295"></rect><rect fill="#2563EB" height="0.7026780512118806" width="1" x="88" y="0.29732194878811935"></rect><rect fill="#2563EB" height="0.5748295658482152" width="1" x="89" y="0.4251704341517848"></rect><rect fill="#2563EB" height="0.7854581490052582" width="1" x="90" y="0.21454185099474177"></rect><rect fill="#2563EB" height="0.7000351706251075" width="1" x="91" y="0.29996482937489255"></rect><rect fill="#2563EB" height="0.7201729124381843" width="1" x="92" y="0.27982708756181573"></rect><rect fill="#2563EB" height="0.796768809282703" width="1" x="93" y="0.203231190717297"></rect><rect fill="#2563EB" height="0.8062743990768303" width="1" x="94" y="0.1937256009231697"></rect><rect fill="#2563EB" height="0.7044027837558732" width="1" x="95" y="0.2955972162441268"></rect><rect fill="#2563EB" height="0.4306550528678009" width="1" x="96" y="0.5693449471321991"></rect><rect fill="#2563EB" height="0.06879018645017163" width="1" x="97" y="0.9312098135498283"></rect><rect fill="#2563EB" height="0.0030403404942734185" width="1" x="98" y="0.9969596595057266"></rect><rect fill="#2563EB" height="0.0005073472870626493" width="1" x="99" y="0.9994926527129373"></rect></svg>