<svg xmlns="http://www.w3.org/2000/svg" preserveAspectRatio="none" viewBox="0 0 100 1"><rect fill="#2563EB" height="0.062474660871920724" width="1" x="0" y="0.9375253391280792"></rect><rect fill="#2563EB" height="0.28487104941978425" width="1" x="1" y="0.7151289505802157"></rect><rect fill="#2563EB" height="0.5681760689662052" width="1" x="2" y="0.4318239310337948"></rect><rect fill="#2563EB" height="0.6010466414956025" width="1" x="3" y="0.3989533585043975"></rect><rect fill="#2563EB" height="0.5367236182582867" width="1" x="4" y="0.46327638174171326"></rect><rect fill="#2563EB" height="0.7823469365713371" width="1" x="5" y="0.21765306342866286"></rect><rect fill="#2563EB" height="0.49366906144065714" width="1" x="6" y="0.5063309385593429"></rect><rect fill="#2563EB" height="0.33694705058585367" width="1" x="7" y="0.6630529494141464"></rect><rect fill="#2563EB" height="0.33915378389058315" width="1" x="8" y="0.6608462161094169"></rect><rect fill="#2563EB" height="0.33126300698425043" width="1" x="9" y="0.6687369930157496"></rect><rect fill="#2563EB" height="0.520980611590996" width="1" x="10" y="0.47901938840900404"></rect><rect fill="#2563EB" height="0.407490111662442" width="1" x="11" y="0.592509888337558"></rect><rect fill="#2563EB" height="0.641816302655927" width="1" x="12" y="0.35818369734407296"></rect><rect fill="#2563EB" height="0.5161582420747471" width="1" x="13" y="0.48384175792525286"></rect><rect fill="#2563EB" height="0.5242196221341127" width="1" x="14" y="0.47578037786588734"></rect><rect fill="#2563EB" height="0.6915400357878525" width="1" x="15" y="0.3084599642121475"></rect><rect fill="#2563EB" height="0.43942103202549465" width="1" x="16" y="0.5605789679745053"></rect><rect fill="#2563EB" height="0.3117968835896174" width="1" x="17" y="0.6882031164103826"></rect><rect fill="#2563EB" height="0.285174599951352" width="1" x="18" y="0.714825400048648"></rect><rect fill="#2563EB" height="0.4212543839206985" width="1" x="19" y="0.5787456160793014"></rect><rect fill="#2563EB" height="0.49018904304484284" width="1" x="20" y="0.5098109569551572"></rect><rect fill="#2563EB" height="0.40494188454274965" width="1" x="21" y="0.5950581154572503"></rect><rect fill="#2563EB" height="0.7466917755971918" width="1" x="22" y="0.2533082244028082"></rect><rect fill="#2563EB" height="0.4865904493466475" width="1" x="23" y="0.5134095506533525"></rect><rect fill="#2563EB" height="0.6487669387750056" width="1" x="24" y="0.3512330612249944"></rect><rect fill="#2563EB" height="0.59259615436536" width="1" x="25" y="0.40740384563464005"></rect><rect fill="#2563EB" height="0.36734062432648085" width="1" x="26" y="0.6326593756735192"></rect><rect fill="#2563EB" height="0.3016216682915255" width="1" x="27" y="0.6983783317084745"></rect><rect fill="#2563EB" height="0.2894719850051234" width="1" x="28" y="0.7105280149948766"></rect><rect fill="#2563EB" height="0.4435562503620964" width="1" x="29" y="0.5564437496379036"></rect><rect fill="#2563EB" height="0.43355593834356465" width="1" x="30" y="0.5664440616564353"></rect><rect fill="#2563EB" height="0.5129073573513376" width="1" x="31" y="0.48709264264866237"></rect><rect fill="#2563EB" height="0.6683817520852129" width="1" x="32" y="0.3316182479147871"></rect><rect fill="#2563EB" height="0.5784283729190949" width="1" x="33" y="0.4215716270809051"></rect><rect fill="#2563EB" height="0.8097507033900865" width="1" x="34" y="0.19024929660991352"></rect><rect fill="#2563EB" height="0.591473796121281" width="1" x="35" y="0.40852620387871896"></rect><rect fill="#2563EB" height="0.41819241347783953" width="1" x="36" y="0.5818075865221605"></rect><rect fill="#2563EB" height="0.36187844707727734" width="1" x="37" y="0.6381215529227227"></rect><rect fill="#2563EB" height="0.36246101374851997" width="1" x="38" y="0.63753898625148"></rect><rect fill="#2563EB" height="0.6972011940408884" width="1" x="39" y="0.30279880595911157"></rect><rect fill="#2563EB" height="0.8158445686829208" width="1" x="40" y="0.18415543131707923"></rect><rect fill="#2563EB" height="0.8015971440224731" width="1" x="41" y="0.19840285597752694"></rect><rect fill="#2563EB" height="0.750975970709142" width="1" x="42" y="0.24902402929085798"></rect><rect fill="#2563EB" height="0.7954983173706495" width="1" x="43" y="0.20450168262935053"></rect><rect fill="#2563EB" height="0.9122741026398693" width="1" x="44" y="0.0877258973601307"></rect><rect fill="#2563EB" height="0.772559670099549" width="1" x="45" y="0.22744032990045104"></rect><rect fill="#2563EB" height="0.6499407942091523" width="1" x="46" y="0.3500592057908477"></rect><rect fill="#2563EB" height="0.5343865055583388" width="1" x="47" y="0.4656134944416612"></rect><rect fill="#2563EB" height="0.6920287691324964" width="1" x="48" y="0.30797123086750355"></rect><rect fill="#2563EB" height="0.784670513084985" width="1" x="49" y="0.21532948691501497"></rect><rect fill="#2563EB" height="0.7769067388371365" width="1" x="50" y="0.22309326116286354"></rect><rect fill="#2563EB" height="0.788905571329218" width="1" x="51" y="0.211094428670782"></rect><rect fill="#2563EB" height="0.6264205204386625" width="1" x="52" y="0.3735794795613375"></rect><rect fill="#2563EB" height="0.8052412806469679" width="1" x="53" y="0.19475871935303213"></rect><rect fill="#2563EB" height="0.8129099689992036" width="1" x="54" y="0.18709003100079635"></rect><rect fill="#2563EB" height="0.71613077650533" width="1" x="55" y="0.28386922349467003"></rect><rect fill="#2563EB" height="0.6141126029953934" width="1" x="56" y="0.3858873970046066"></rect><rect fill="#2563EB" height="0.5810351780289342" width="1" x="57" y="0.41896482197106577"></rect><rect fill="#2563EB" height="0.6567864707723765" width="1" x="58" y="0.3432135292276235"></rect><rect fill="#2563EB" height="0.7093717990484169" width="1" x="59" y="0.29062820095158315"></rect><rect fill="#2563EB" height="0.653982957782884" width="1" x="60" y="0.34601704221711604"></rect><rect fill="#2563EB" height="0.869366725361641" width="1" x="61" y="0.13063327463835905"></rect><rect fill="#2563EB" height="0.5980997863981402" width="1" x="62" y="0.4019002136018598"></rect><rect fill="#2563EB" height="0.8954859359872976" width="1" x="63" y="0.10451406401270236"></rect><rect fill="#2563EB" height="0.7511969988125086" width="1" x="64" y="0.24880300118749143"></rect><rect fill="#2563EB" height="0.5946433937815967" width="1" x="65" y="0.4053566062184033"></rect><rect fill="#2563EB" height="0.5703791035624484" width="1" x="66" y="0.42962089643755164"></rect><rect fill="#2563EB" height="0.528779631148759" width="1" x="67" y="0.47122036885124097"></rect><rect fill="#2563EB" height="0.6838518665533716" width="1" x="68" y="0.3161481334466284"></rect><rect fill="#2563EB" height="0.7214679375780317" width="1" x="69" y="0.27853206242196826"></rect><rect fill="#2563EB" height="0.6587641184031943" width="1" x="70" y="0.34123588159680573"></rect><rect fill="#2563EB" height="0.7950721718147993" width="1" x="71" y="0.20492782818520072"></rect><rect fill="#2563EB" height="0.7593713620482727" width="1" x="72" y="0.2406286379517273"></rect><rect fill="#2563EB" height="0.8998272695424226" width="1" x="73" y="0.10017273045757735"></rect><rect fill="#2563EB" height="0.7826989150034882" width="1" x="74" y="0.2173010849965118"></rect><rect fill="#2563EB" height="0.6210476623856633" width="1" x="75" y="0.37895233761433667"></rect><rect fill="#2563EB" height="0.4781847552290331" width="1" x="76" y="0.521815244770967"></rect><rect fill="#2563EB" height="0.5669867319944887" width="1" x="77" y="0.4330132680055113"></rect><rect fill="#2563EB" height="0.7705973920902774" width="1" x="78" y="0.22940260790972256"></rect><rect fill="#2563EB" height="0.7867647269938486" width="1" x="79" y="0.21323527300615142"></rect><rect fill="#2563EB" height="1" width="1" x="80" y="0"></rect><rect fill="#2563EB" height="0.9509829854341056" width="1" x="81" y="0.04901701456589436"></rect><rect fill="#2563EB" height="0.7580573559293553" width="1" x="82" y="0.2419426440706447"></rect><rect fill="#2563EB" height="0.7922136154162842" width="1" x="83" y="0.2077863845837158"></rect><rect fill="#2563EB" height="0.5206444614497159" width="1" x="84" y="0.4793555385502841"></rect><rect fill="#2563EB" height="0.49437414647341443" width="1" x="85" y="0.5056258535265856"></rect><rect fill="#2563EB" height="0.18207461704874342" width="1" x="86" y="0.8179253829512566"></rect><rect fill="#2563EB" height="0.06174812672837696" width="1" x="87" y="0.9382518732716231"></rect><rect fill="#2563EB" height="0.06023151762405448" width="1" x="88" y="0.9397684823759456"></rect><rect fill="#2563EB" height="0.0497910586503159" width="1" x="89" y="0.9502089413496841"></rect><rect fill="#2563EB" height="0.054626145166905164" width="1" x="90" y="0.9453738548330949"></rect><rect fill="#2563EB" height="0.07141661083212998" width="1" x="91" y="0.92858338916787"></rect><rect fill="#2563EB" height="0.05797645428973007" width="1" x="92" y="0.9420235457102699"></rect><rect fill="#2563EB" height="0.010320797941112032" width="1" x="93" y="0.9896792020588879"></rect><rect fill="#2563EB" height="0.0020499156471323297" width="1" x="94" y="0.9979500843528677"></rect><rect fill="#2563EB" height="0.00036565604164474945" width="1" x="95" y="0.9996343439583553"></rect><rect fill="#2563EB" height="0.00009708427078453459" width="1" x="96" y="0.9999029157292154"></rect><rect fill="#2563EB" height="0.000013146000849130878" width="1" x="97" y="0.9999868539991509"></rect><rect fill="#2563EB" height="0.0000011789193865933911" width="1" x="98" y="0.9999988210806134"></rect><rect fill="#2563EB" height="3.140329537632549e-7" width="1" x="99" y="0.9999996859670462"></rect></svg>