<svg xmlns="http://www.w3.org/2000/svg" preserveAspectRatio="none" viewBox="0 0 100 1"><rect fill="#2563EB" height="0.6925002384898871" width="1" x="0" y="0.30749976151011293"></rect><rect fill="#2563EB" height="0.9385157863952812" width="1" x="1" y="0.061484213604718785"></rect><rect fill="#2563EB" height="0.8205290245352808" width="1" x="2" y="0.17947097546471924"></rect><rect fill="#2563EB" height="0.9218663430596756" width="1" x="3" y="0.07813365694032437"></rect><rect fill="#2563EB" height="0.875457085068501" width="1" x="4" y="0.12454291493149905"></rect><rect fill="#2563EB" height="0.9778347869216528" width="1" x="5" y="0.02216521307834718"></rect><rect fill="#2563EB" height="0.8338849552021417" width="1" x="6" y="0.16611504479785832"></rect><rect fill="#2563EB" height="0.8382992121959497" width="1" x="7" y="0.16170078780405028"></rect><rect fill="#2563EB" height="0.815457807378222" width="1" x="8" y="0.18454219262177796"></rect><rect fill="#2563EB" height="0.658743004324818" width="1" x="9" y="0.341256995675182"></rect><rect fill="#2563EB" height="0.6339510090960687" width="1" x="10" y="0.3660489909039313"></rect><rect fill="#2563EB" height="0.6686563179512046" width="1" x="11" y="0.3313436820487954"></rect><rect fill="#2563EB" height="0.8560561185064878" width="1" x="12" y="0.14394388149351223"></rect><rect fill="#2563EB" height="0.8740994129929919" width="1" x="13" y="0.12590058700700812"></rect><rect fill="#2563EB" height="0.9314894704656589" width="1" x="14" y="0.06851052953434111"></rect><rect fill="#2563EB" height="0.799149719923386" width="1" x="15" y="0.20085028007661399"></rect><rect fill="#2563EB" height="0.8533540720784355" width="1" x="16" y="0.1466459279215645"></rect><rect fill="#2563EB" height="0.7216806576100091" width="1" x="17" y="0.2783193423899909"></rect><rect fill="#2563EB" height="0.5932452040994342" width="1" x="18" y="0.40675479590056585"></rect><rect fill="#2563EB" height="0.7781046969749181" width="1" x="19" y="0.22189530302508187"></rect><rect fill="#2563EB" height="0.8454390911748542" width="1" x="20" y="0.15456090882514584"></rect><rect fill="#2563EB" height="0.8539256269254684" width="1" x="21" y="0.14607437307453164"></rect><rect fill="#2563EB" height="0.8266138972747294" width="1" x="22" y="0.17338610272527055"></rect><rect fill="#2563EB" height="0.6619481881973583" width="1" x="23" y="0.33805181180264166"></rect><rect fill="#2563EB" height="0.7747554028329847" width="1" x="24" y="0.22524459716701528"></rect><rect fill="#2563EB" height="0.9858305058784177" width="1" x="25" y="0.014169494121582304"></rect><rect fill="#2563EB" height="0.9186688655609101" width="1" x="26" y="0.0813311344390899"></rect><rect fill="#2563EB" height="0.9811851323953135" width="1" x="27" y="0.018814867604686536"></rect><rect fill="#2563EB" height="0.8987039682573831" width="1" x="28" y="0.10129603174261692"></rect><rect fill="#2563EB" height="0.9152888809966725" width="1" x="29" y="0.0847111190033275"></rect><rect fill="#2563EB" height="0.8083813656574723" width="1" x="30" y="0.19161863434252768"></rect><rect fill="#2563EB" height="0.8356583461188334" width="1" x="31" y="0.16434165388116662"></rect><rect fill="#2563EB" height="0.9343613100440876" width="1" x="32" y="0.06563868995591238"></rect><rect fill="#2563EB" height="0.6697868514073332" width="1" x="33" y="0.3302131485926668"></rect><rect fill="#2563EB" height="0.7162016855194325" width="1" x="34" y="0.28379831448056747"></rect><rect fill="#2563EB" height="0.8166922550765823" width="1" x="35" y="0.18330774492341773"></rect><rect fill="#2563EB" height="0.9079415442005033" width="1" x="36" y="0.09205845579949667"></rect><rect fill="#2563EB" height="0.868132093771856" width="1" x="37" y="0.13186790622814404"></rect><rect fill="#2563EB" height="0.8962919645311118" width="1" x="38" y="0.10370803546888818"></rect><rect fill="#2563EB" height="0.9317972719678146" width="1" x="39" y="0.06820272803218541"></rect><rect fill="#2563EB" height="0.9981045717218762" width="1" x="40" y="0.001895428278123834"></rect><rect fill="#2563EB" height="0.7000545075667809" width="1" x="41" y="0.2999454924332191"></rect><rect fill="#2563EB" height="0.7049044619150364" width="1" x="42" y="0.2950955380849636"></rect><rect fill="#2563EB" height="0.6929161089084733" width="1" x="43" y="0.3070838910915267"></rect><rect fill="#2563EB" height="0.8833738389180034" width="1" x="44" y="0.11662616108199664"></rect><rect fill="#2563EB" height="0.8607234845201194" width="1" x="45" y="0.13927651547988062"></rect><rect fill="#2563EB" height="0.8529353123747454" width="1" x="46" y="0.1470646876252546"></rect><rect fill="#2563EB" height="0.8106010080478041" width="1" x="47" y="0.1893989919521959"></rect><rect fill="#2563EB" height="0.7940650081390913" width="1" x="48" y="0.2059349918609087"></rect><rect fill="#2563EB" height="0.8082523305341383" width="1" x="49" y="0.19174766946586175"></rect><rect fill="#2563EB" height="0.8912099191970072" width="1" x="50" y="0.1087900808029928"></rect><rect fill="#2563EB" height="0.9266384409941809" width="1" x="51" y="0.07336155900581909"></rect><rect fill="#2563EB" height="0.8043598162395883" width="1" x="52" y="0.1956401837604117"></rect><rect fill="#2563EB" height="0.9911638497600072" width="1" x="53" y="0.008836150239992846"></rect><rect fill="#2563EB" height="0.9122162895233967" width="1" x="54" y="0.08778371047660327"></rect><rect fill="#2563EB" height="0.8666053760593616" width="1" x="55" y="0.1333946239406384"></rect><rect fill="#2563EB" height="0.9715857184544123" width="1" x="56" y="0.028414281545587672"></rect><rect fill="#2563EB" height="0.8419780207232646" width="1" x="57" y="0.15802197927673545"></rect><rect fill="#2563EB" height="0.6437259355325868" width="1" x="58" y="0.35627406446741317"></rect><rect fill="#2563EB" height="0.8144654321776561" width="1" x="59" y="0.1855345678223439"></rect><rect fill="#2563EB" height="0.9359450695871465" width="1" x="60" y="0.06405493041285348"></rect><rect fill="#2563EB" height="0.8826140208891021" width="1" x="61" y="0.11738597911089788"></rect><rect fill="#2563EB" height="0.7732522841555105" width="1" x="62" y="0.2267477158444895"></rect><rect fill="#2563EB" height="0.8869279418817678" width="1" x="63" y="0.11307205811823218"></rect><rect fill="#2563EB" height="0.7997050907095163" width="1" x="64" y="0.20029490929048366"></rect><rect fill="#2563EB" height="0.8458850842836073" width="1" x="65" y="0.1541149157163927"></rect><rect fill="#2563EB" height="0.7938042557099052" width="1" x="66" y="0.2061957442900948"></rect><rect fill="#2563EB" height="0.8267381330898947" width="1" x="67" y="0.17326186691010526"></rect><rect fill="#2563EB" height="0.735049715239658" width="1" x="68" y="0.264950284760342"></rect><rect fill="#2563EB" height="1" width="1" x="69" y="0"></rect><rect fill="#2563EB" height="0.774638797897455" width="1" x="70" y="0.22536120210254496"></rect><rect fill="#2563EB" height="0.9117893429197551" width="1" x="71" y="0.08821065708024489"></rect><rect fill="#2563EB" height="0.659800089748922" width="1" x="72" y="0.340199910251078"></rect><rect fill="#2563EB" height="0.7930432914486331" width="1" x="73" y="0.20695670855136694"></rect><rect fill="#2563EB" height="0.6813492551996881" width="1" x="74" y="0.31865074480031186"></rect><rect fill="#2563EB" height="0.9566935947777965" width="1" x="75" y="0.043306405222203526"></rect><rect fill="#2563EB" height="0.7050145735232568" width="1" x="76" y="0.2949854264767432"></rect><rect fill="#2563EB" height="0.9417495309186894" width="1" x="77" y="0.058250469081310596"></rect><rect fill="#2563EB" height="0.7060041209241439" width="1" x="78" y="0.2939958790758561"></rect><rect fill="#2563EB" height="0.8280024482567008" width="1" x="79" y="0.17199755174329923"></rect><rect fill="#2563EB" height="0.7798501503298809" width="1" x="80" y="0.22014984967011908"></rect><rect fill="#2563EB" height="0.7466694565848686" width="1" x="81" y="0.2533305434151314"></rect><rect fill="#2563EB" height="0.6713590908069358" width="1" x="82" y="0.3286409091930642"></rect><rect fill="#2563EB" height="0.7372005115939365" width="1" x="83" y="0.2627994884060635"></rect><rect fill="#2563EB" height="0.7360923472925919" width="1" x="84" y="0.2639076527074081"></rect><rect fill="#2563EB" height="0.8530466050726441" width="1" x="85" y="0.14695339492735593"></rect><rect fill="#2563EB" height="0.7803080777858852" width="1" x="86" y="0.21969192221411482"></rect><rect fill="#2563EB" height="0.9298753158085834" width="1" x="87" y="0.0701246841914166"></rect><rect fill="#2563EB" height="0.8427631493751693" width="1" x="88" y="0.15723685062483073"></rect><rect fill="#2563EB" height="0.766089761391661" width="1" x="89" y="0.23391023860833904"></rect><rect fill="#2563EB" height="0.5952373698066632" width="1" x="90" y="0.4047626301933368"></rect><rect fill="#2563EB" height="0.6543028564393337" width="1" x="91" y="0.3456971435606663"></rect><rect fill="#2563EB" height="0.6526185021115851" width="1" x="92" y="0.3473814978884149"></rect><rect fill="#2563EB" height="0.8868368457504706" width="1" x="93" y="0.11316315424952939"></rect><rect fill="#2563EB" height="0.7641639645203132" width="1" x="94" y="0.2358360354796868"></rect><rect fill="#2563EB" height="0.7593073942751261" width="1" x="95" y="0.24069260572487394"></rect><rect fill="#2563EB" height="0.7580815935049091" width="1" x="96" y="0.2419184064950909"></rect><rect fill="#2563EB" height="0.47571559315985035" width="1" x="97" y="0.5242844068401497"></rect><rect fill="#2563EB" height="0.007776507838229351" width="1" x="98" y="0.9922234921617706"></rect><rect fill="#2563EB" height="0.00019557226685114503" width="1" x="99" y="0.9998044277331488"></rect></svg>