<svg xmlns="http://www.w3.org/2000/svg" preserveAspectRatio="none" viewBox="0 0 100 1"><rect fill="#2563EB" height="0.33878474890888044" width="1" x="0" y="0.6612152510911196"></rect><rect fill="#2563EB" height="0.39026293528504025" width="1" x="1" y="0.6097370647149598"></rect><rect fill="#2563EB" height="0.42099899269582386" width="1" x="2" y="0.5790010073041761"></rect><rect fill="#2563EB" height="0.40089661381359337" width="1" x="3" y="0.5991033861864066"></rect><rect fill="#2563EB" height="0.4702465481751701" width="1" x="4" y="0.5297534518248299"></rect><rect fill="#2563EB" height="0.3769602801365322" width="1" x="5" y="0.6230397198634678"></rect><rect fill="#2563EB" height="0.43365794506272115" width="1" x="6" y="0.5663420549372788"></rect><rect fill="#2563EB" height="0.4149162264773809" width="1" x="7" y="0.5850837735226191"></rect><rect fill="#2563EB" height="0.3638932581455371" width="1" x="8" y="0.6361067418544629"></rect><rect fill="#2563EB" height="0.4255154291138416" width="1" x="9" y="0.5744845708861583"></rect><rect fill="#2563EB" height="0.4373858410876835" width="1" x="10" y="0.5626141589123165"></rect><rect fill="#2563EB" height="0.39243075640572367" width="1" x="11" y="0.6075692435942763"></rect><rect fill="#2563EB" height="0.2655994068497907" width="1" x="12" y="0.7344005931502093"></rect><rect fill="#2563EB" height="0.7674274874407254" width="1" x="13" y="0.23257251255927458"></rect><rect fill="#2563EB" height="0.625569363240081" width="1" x="14" y="0.37443063675991906"></rect><rect fill="#2563EB" height="0.664517837455386" width="1" x="15" y="0.33548216254461405"></rect><rect fill="#2563EB" height="0.7330387904932445" width="1" x="16" y="0.2669612095067555"></rect><rect fill="#2563EB" height="0.6421761173301124" width="1" x="17" y="0.3578238826698876"></rect><rect fill="#2563EB" height="0.6763174576871724" width="1" x="18" y="0.32368254231282756"></rect><rect fill="#2563EB" height="0.6471814652118187" width="1" x="19" y="0.35281853478818126"></rect><rect fill="#2563EB" height="0.6470597791548018" width="1" x="20" y="0.35294022084519816"></rect><rect fill="#2563EB" height="0.7410842552849399" width="1" x="21" y="0.25891574471506007"></rect><rect fill="#2563EB" height="0.6854984706199762" width="1" x="22" y="0.31450152938002385"></rect><rect fill="#2563EB" height="0.6943239329104841" width="1" x="23" y="0.3056760670895159"></rect><rect fill="#2563EB" height="0.7129159522957644" width="1" x="24" y="0.28708404770423557"></rect><rect fill="#2563EB" height="0.6123917679420161" width="1" x="25" y="0.3876082320579839"></rect><rect fill="#2563EB" height="0.6886120409561197" width="1" x="26" y="0.3113879590438803"></rect><rect fill="#2563EB" height="0.7136134854639427" width="1" x="27" y="0.28638651453605735"></rect><rect fill="#2563EB" height="0.6903081141824317" width="1" x="28" y="0.30969188581756835"></rect><rect fill="#2563EB" height="0.7532037817322768" width="1" x="29" y="0.24679621826772324"></rect><rect fill="#2563EB" height="0.6549191440671704" width="1" x="30" y="0.34508085593282956"></rect><rect fill="#2563EB" height="0.7603661728441596" width="1" x="31" y="0.23963382715584036"></rect><rect fill="#2563EB" height="0.9105352353299747" width="1" x="32" y="0.08946476467002529"></rect><rect fill="#2563EB" height="0.6970933141392527" width="1" x="33" y="0.3029066858607473"></rect><rect fill="#2563EB" height="0.819991855718279" width="1" x="34" y="0.18000814428172096"></rect><rect fill="#2563EB" height="0.9152109380216359" width="1" x="35" y="0.08478906197836411"></rect><rect fill="#2563EB" height="0.615361534735364" width="1" x="36" y="0.38463846526463596"></rect><rect fill="#2563EB" height="0.5952885937356258" width="1" x="37" y="0.4047114062643742"></rect><rect fill="#2563EB" height="0.7464480377948641" width="1" x="38" y="0.2535519622051359"></rect><rect fill="#2563EB" height="0.7104007364554695" width="1" x="39" y="0.28959926354453047"></rect><rect fill="#2563EB" height="0.7403179362149274" width="1" x="40" y="0.25968206378507264"></rect><rect fill="#2563EB" height="0.7471410896562418" width="1" x="41" y="0.2528589103437582"></rect><rect fill="#2563EB" height="0.8266344714077485" width="1" x="42" y="0.17336552859225152"></rect><rect fill="#2563EB" height="0.7819663599424516" width="1" x="43" y="0.21803364005754844"></rect><rect fill="#2563EB" height="0.7201996418034295" width="1" x="44" y="0.27980035819657045"></rect><rect fill="#2563EB" height="0.6845082346800205" width="1" x="45" y="0.31549176531997947"></rect><rect fill="#2563EB" height="0.7830834664539155" width="1" x="46" y="0.21691653354608453"></rect><rect fill="#2563EB" height="0.7830613441318489" width="1" x="47" y="0.2169386558681511"></rect><rect fill="#2563EB" height="0.6494452384267128" width="1" x="48" y="0.35055476157328724"></rect><rect fill="#2563EB" height="0.8781892033505754" width="1" x="49" y="0.12181079664942462"></rect><rect fill="#2563EB" height="0.9378519160704845" width="1" x="50" y="0.06214808392951554"></rect><rect fill="#2563EB" height="0.7177843036268267" width="1" x="51" y="0.28221569637317334"></rect><rect fill="#2563EB" height="0.6114370744950545" width="1" x="52" y="0.38856292550494553"></rect><rect fill="#2563EB" height="0.7563289081432547" width="1" x="53" y="0.2436710918567453"></rect><rect fill="#2563EB" height="0.7624130167543223" width="1" x="54" y="0.23758698324567773"></rect><rect fill="#2563EB" height="0.7176293911839619" width="1" x="55" y="0.28237060881603815"></rect><rect fill="#2563EB" height="0.7460470507018891" width="1" x="56" y="0.25395294929811085"></rect><rect fill="#2563EB" height="0.8372169355044868" width="1" x="57" y="0.16278306449551316"></rect><rect fill="#2563EB" height="0.6870368587375697" width="1" x="58" y="0.3129631412624303"></rect><rect fill="#2563EB" height="0.7276888896753934" width="1" x="59" y="0.27231111032460664"></rect><rect fill="#2563EB" height="0.9539929458619589" width="1" x="60" y="0.04600705413804107"></rect><rect fill="#2563EB" height="0.8753074422740734" width="1" x="61" y="0.12469255772592658"></rect><rect fill="#2563EB" height="0.9365359763261133" width="1" x="62" y="0.0634640236738867"></rect><rect fill="#2563EB" height="0.9111990504697137" width="1" x="63" y="0.08880094953028628"></rect><rect fill="#2563EB" height="0.8091189104544434" width="1" x="64" y="0.1908810895455566"></rect><rect fill="#2563EB" height="0.8331214137908715" width="1" x="65" y="0.16687858620912854"></rect><rect fill="#2563EB" height="0.8020050380385406" width="1" x="66" y="0.19799496196145938"></rect><rect fill="#2563EB" height="0.8627225702585619" width="1" x="67" y="0.13727742974143808"></rect><rect fill="#2563EB" height="0.9108688900610138" width="1" x="68" y="0.08913110993898621"></rect><rect fill="#2563EB" height="0.8538154399038356" width="1" x="69" y="0.14618456009616443"></rect><rect fill="#2563EB" height="0.7592428052645238" width="1" x="70" y="0.2407571947354762"></rect><rect fill="#2563EB" height="0.771117289293361" width="1" x="71" y="0.22888271070663901"></rect><rect fill="#2563EB" height="0.9210813107776804" width="1" x="72" y="0.0789186892223196"></rect><rect fill="#2563EB" height="0.7819794605491224" width="1" x="73" y="0.21802053945087763"></rect><rect fill="#2563EB" height="0.8468261752048278" width="1" x="74" y="0.15317382479517216"></rect><rect fill="#2563EB" height="0.9788007268987642" width="1" x="75" y="0.021199273101235816"></rect><rect fill="#2563EB" height="0.8922387407886145" width="1" x="76" y="0.10776125921138546"></rect><rect fill="#2563EB" height="0.6445422718143252" width="1" x="77" y="0.3554577281856748"></rect><rect fill="#2563EB" height="0.7155193206149704" width="1" x="78" y="0.28448067938502963"></rect><rect fill="#2563EB" height="0.9449071605611271" width="1" x="79" y="0.05509283943887289"></rect><rect fill="#2563EB" height="0.769015388798494" width="1" x="80" y="0.23098461120150604"></rect><rect fill="#2563EB" height="0.797891073917319" width="1" x="81" y="0.20210892608268105"></rect><rect fill="#2563EB" height="0.7827534437477989" width="1" x="82" y="0.21724655625220113"></rect><rect fill="#2563EB" height="0.8142218117216955" width="1" x="83" y="0.1857781882783045"></rect><rect fill="#2563EB" height="0.6951681789708749" width="1" x="84" y="0.3048318210291251"></rect><rect fill="#2563EB" height="0.8737254896965291" width="1" x="85" y="0.12627451030347092"></rect><rect fill="#2563EB" height="0.9410866157454738" width="1" x="86" y="0.05891338425452619"></rect><rect fill="#2563EB" height="1" width="1" x="87" y="0"></rect><rect fill="#2563EB" height="0.856224531094293" width="1" x="88" y="0.14377546890570703"></rect><rect fill="#2563EB" height="0.9243300819320852" width="1" x="89" y="0.07566991806791479"></rect><rect fill="#2563EB" height="0.862898679170219" width="1" x="90" y="0.137101320829781"></rect><rect fill="#2563EB" height="0.7509426025453053" width="1" x="91" y="0.24905739745469468"></rect><rect fill="#2563EB" height="0.8986710964579334" width="1" x="92" y="0.10132890354206658"></rect><rect fill="#2563EB" height="0.8190966846142391" width="1" x="93" y="0.18090331538576088"></rect><rect fill="#2563EB" height="0.7969889655036098" width="1" x="94" y="0.20301103449639024"></rect><rect fill="#2563EB" height="0.971657741783097" width="1" x="95" y="0.02834225821690295"></rect><rect fill="#2563EB" height="0.7749259251215307" width="1" x="96" y="0.2250740748784693"></rect><rect fill="#2563EB" height="0.7919028540003843" width="1" x="97" y="0.2080971459996157"></rect><rect fill="#2563EB" height="0.11240572513394297" width="1" x="98" y="0.887594274866057"></rect><rect fill="#2563EB" height="0.0012411768345668946" width="1" x="99" y="0.9987588231654331"></rect></svg>