<svg xmlns="http://www.w3.org/2000/svg" preserveAspectRatio="none" viewBox="0 0 100 1"><rect fill="#2563EB" height="0.4634157130276098" width="1" x="0" y="0.5365842869723902"></rect><rect fill="#2563EB" height="0.5559839170657637" width="1" x="1" y="0.44401608293423633"></rect><rect fill="#2563EB" height="0.6761612119425331" width="1" x="2" y="0.3238387880574669"></rect><rect fill="#2563EB" height="0.488634023237541" width="1" x="3" y="0.511365976762459"></rect><rect fill="#2563EB" height="0.5055609316195571" width="1" x="4" y="0.49443906838044294"></rect><rect fill="#2563EB" height="0.633869762782157" width="1" x="5" y="0.366130237217843"></rect><rect fill="#2563EB" height="0.5101245567953125" width="1" x="6" y="0.48987544320468746"></rect><rect fill="#2563EB" height="0.6367264076811957" width="1" x="7" y="0.3632735923188043"></rect><rect fill="#2563EB" height="0.5388984628755" width="1" x="8" y="0.46110153712449997"></rect><rect fill="#2563EB" height="0.513227863267998" width="1" x="9" y="0.48677213673200204"></rect><rect fill="#2563EB" height="0.7383309640872335" width="1" x="10" y="0.26166903591276647"></rect><rect fill="#2563EB" height="0.6776273248306187" width="1" x="11" y="0.3223726751693813"></rect><rect fill="#2563EB" height="0.8065218157433073" width="1" x="12" y="0.19347818425669272"></rect><rect fill="#2563EB" height="0.6107413345452044" width="1" x="13" y="0.3892586654547956"></rect><rect fill="#2563EB" height="0.6398555194647402" width="1" x="14" y="0.3601444805352598"></rect><rect fill="#2563EB" height="0.7011495735736695" width="1" x="15" y="0.29885042642633053"></rect><rect fill="#2563EB" height="0.6317523762786026" width="1" x="16" y="0.3682476237213974"></rect><rect fill="#2563EB" height="0.7426959969790694" width="1" x="17" y="0.2573040030209306"></rect><rect fill="#2563EB" height="0.6581731322609763" width="1" x="18" y="0.3418268677390237"></rect><rect fill="#2563EB" height="0.6820336074142901" width="1" x="19" y="0.3179663925857099"></rect><rect fill="#2563EB" height="0.7384746526794368" width="1" x="20" y="0.2615253473205632"></rect><rect fill="#2563EB" height="0.6305218035991287" width="1" x="21" y="0.3694781964008713"></rect><rect fill="#2563EB" height="0.6797882403951302" width="1" x="22" y="0.3202117596048698"></rect><rect fill="#2563EB" height="0.5913778275886327" width="1" x="23" y="0.40862217241136733"></rect><rect fill="#2563EB" height="0.6123750028329347" width="1" x="24" y="0.38762499716706533"></rect><rect fill="#2563EB" height="0.8197367969423569" width="1" x="25" y="0.1802632030576431"></rect><rect fill="#2563EB" height="0.6494649019683094" width="1" x="26" y="0.3505350980316906"></rect><rect fill="#2563EB" height="0.7184389499522512" width="1" x="27" y="0.2815610500477488"></rect><rect fill="#2563EB" height="0.704352717029124" width="1" x="28" y="0.29564728297087595"></rect><rect fill="#2563EB" height="0.6664898267145021" width="1" x="29" y="0.3335101732854979"></rect><rect fill="#2563EB" height="0.8361659177603218" width="1" x="30" y="0.1638340822396782"></rect><rect fill="#2563EB" height="0.7026173899091467" width="1" x="31" y="0.2973826100908533"></rect><rect fill="#2563EB" height="0.8963591326362228" width="1" x="32" y="0.1036408673637772"></rect><rect fill="#2563EB" height="0.6279439530784466" width="1" x="33" y="0.37205604692155336"></rect><rect fill="#2563EB" height="0.6478394021316685" width="1" x="34" y="0.35216059786833154"></rect><rect fill="#2563EB" height="0.7567278301766627" width="1" x="35" y="0.24327216982333733"></rect><rect fill="#2563EB" height="0.6600525445574079" width="1" x="36" y="0.3399474554425921"></rect><rect fill="#2563EB" height="0.7763614408459493" width="1" x="37" y="0.22363855915405073"></rect><rect fill="#2563EB" height="0.9900364904345952" width="1" x="38" y="0.009963509565404816"></rect><rect fill="#2563EB" height="0.8805120493741928" width="1" x="39" y="0.1194879506258072"></rect><rect fill="#2563EB" height="0.8464417695506121" width="1" x="40" y="0.15355823044938788"></rect><rect fill="#2563EB" height="0.6812730209406722" width="1" x="41" y="0.3187269790593278"></rect><rect fill="#2563EB" height="1" width="1" x="42" y="0"></rect><rect fill="#2563EB" height="0.6113937939104217" width="1" x="43" y="0.3886062060895783"></rect><rect fill="#2563EB" height="0.6481090968246442" width="1" x="44" y="0.35189090317535576"></rect><rect fill="#2563EB" height="0.796613360666129" width="1" x="45" y="0.20338663933387102"></rect><rect fill="#2563EB" height="0.6147236958472623" width="1" x="46" y="0.3852763041527377"></rect><rect fill="#2563EB" height="0.8119101772860269" width="1" x="47" y="0.18808982271397312"></rect><rect fill="#2563EB" height="0.9580395744480635" width="1" x="48" y="0.041960425551936464"></rect><rect fill="#2563EB" height="0.8928604604126089" width="1" x="49" y="0.10713953958739109"></rect><rect fill="#2563EB" height="0.7950565398603353" width="1" x="50" y="0.2049434601396647"></rect><rect fill="#2563EB" height="0.7183057086210047" width="1" x="51" y="0.28169429137899527"></rect><rect fill="#2563EB" height="0.9418828612346687" width="1" x="52" y="0.05811713876533131"></rect><rect fill="#2563EB" height="0.7323122743640299" width="1" x="53" y="0.2676877256359701"></rect><rect fill="#2563EB" height="0.6407065719422628" width="1" x="54" y="0.35929342805773723"></rect><rect fill="#2563EB" height="0.813950760215466" width="1" x="55" y="0.18604923978453403"></rect><rect fill="#2563EB" height="0.6711988738533232" width="1" x="56" y="0.3288011261466768"></rect><rect fill="#2563EB" height="0.8470504689525447" width="1" x="57" y="0.15294953104745534"></rect><rect fill="#2563EB" height="0.6221445905170939" width="1" x="58" y="0.3778554094829061"></rect><rect fill="#2563EB" height="0.7258373947559046" width="1" x="59" y="0.2741626052440954"></rect><rect fill="#2563EB" height="0.830221059596118" width="1" x="60" y="0.16977894040388197"></rect><rect fill="#2563EB" height="0.7145822391720011" width="1" x="61" y="0.28541776082799886"></rect><rect fill="#2563EB" height="0.8581342457939797" width="1" x="62" y="0.14186575420602032"></rect><rect fill="#2563EB" height="0.7259049871583615" width="1" x="63" y="0.2740950128416385"></rect><rect fill="#2563EB" height="0.7486632867536894" width="1" x="64" y="0.2513367132463106"></rect><rect fill="#2563EB" height="0.8408857914902876" width="1" x="65" y="0.15911420850971236"></rect><rect fill="#2563EB" height="0.6554572183934912" width="1" x="66" y="0.34454278160650875"></rect><rect fill="#2563EB" height="0.8092144724518" width="1" x="67" y="0.1907855275482"></rect><rect fill="#2563EB" height="0.5281645148406162" width="1" x="68" y="0.4718354851593838"></rect><rect fill="#2563EB" height="0.6955972613657802" width="1" x="69" y="0.30440273863421985"></rect><rect fill="#2563EB" height="0.4966583910529962" width="1" x="70" y="0.5033416089470037"></rect><rect fill="#2563EB" height="0.4357595105173211" width="1" x="71" y="0.5642404894826789"></rect><rect fill="#2563EB" height="0.3951177022943085" width="1" x="72" y="0.6048822977056916"></rect><rect fill="#2563EB" height="0.3189964261400074" width="1" x="73" y="0.6810035738599927"></rect><rect fill="#2563EB" height="0.40540296505668194" width="1" x="74" y="0.5945970349433181"></rect><rect fill="#2563EB" height="0.34615161000334005" width="1" x="75" y="0.65384838999666"></rect><rect fill="#2563EB" height="0.38203650020140906" width="1" x="76" y="0.617963499798591"></rect><rect fill="#2563EB" height="0.3419965806256808" width="1" x="77" y="0.6580034193743192"></rect><rect fill="#2563EB" height="0.3757703549263762" width="1" x="78" y="0.6242296450736238"></rect><rect fill="#2563EB" height="0.37460571831138284" width="1" x="79" y="0.6253942816886171"></rect><rect fill="#2563EB" height="0.380653692717072" width="1" x="80" y="0.6193463072829279"></rect><rect fill="#2563EB" height="0.42337035928463435" width="1" x="81" y="0.5766296407153657"></rect><rect fill="#2563EB" height="0.39309969740114226" width="1" x="82" y="0.6069003025988577"></rect><rect fill="#2563EB" height="0.3239007485311296" width="1" x="83" y="0.6760992514688704"></rect><rect fill="#2563EB" height="0.4039602071106833" width="1" x="84" y="0.5960397928893166"></rect><rect fill="#2563EB" height="0.34449740295334563" width="1" x="85" y="0.6555025970466544"></rect><rect fill="#2563EB" height="0.36944287964639244" width="1" x="86" y="0.6305571203536076"></rect><rect fill="#2563EB" height="0.3670229073509566" width="1" x="87" y="0.6329770926490434"></rect><rect fill="#2563EB" height="0.3330647740178943" width="1" x="88" y="0.6669352259821058"></rect><rect fill="#2563EB" height="0.544404523723058" width="1" x="89" y="0.45559547627694197"></rect><rect fill="#2563EB" height="0.6294241115943613" width="1" x="90" y="0.3705758884056387"></rect><rect fill="#2563EB" height="0.03991057036743715" width="1" x="91" y="0.9600894296325628"></rect><rect fill="#2563EB" height="0.0009557479086331714" width="1" x="92" y="0.9990442520913668"></rect><rect fill="#2563EB" height="0.000019150942355990104" width="1" x="93" y="0.9999808490576441"></rect><rect fill="#2563EB" height="0.0000024371376899071915" width="1" x="94" y="0.9999975628623101"></rect><rect fill="#2563EB" height="2.787861603940574e-7" width="1" x="95" y="0.9999997212138396"></rect><rect fill="#2563EB" height="9.403017396419423e-8" width="1" x="96" y="0.999999905969826"></rect><rect fill="#2563EB" height="0" width="1" x="97" y="1"></rect><rect fill="#2563EB" height="0" width="1" x="98" y="1"></rect><rect fill="#2563EB" height="0" width="1" x="99" y="1"></rect></svg>