<svg xmlns="http://www.w3.org/2000/svg" preserveAspectRatio="none" viewBox="0 0 100 1"><rect fill="#2563EB" height="0.4831831231929452" width="1" x="0" y="0.5168168768070548"></rect><rect fill="#2563EB" height="0.471802877627438" width="1" x="1" y="0.528197122372562"></rect><rect fill="#2563EB" height="0.4814138774908883" width="1" x="2" y="0.5185861225091117"></rect><rect fill="#2563EB" height="0.5502021376568281" width="1" x="3" y="0.4497978623431719"></rect><rect fill="#2563EB" height="0.5693894542128501" width="1" x="4" y="0.43061054578714986"></rect><rect fill="#2563EB" height="0.5746676253612568" width="1" x="5" y="0.4253323746387432"></rect><rect fill="#2563EB" height="0.5645079249286215" width="1" x="6" y="0.43549207507137855"></rect><rect fill="#2563EB" height="0.657831907200328" width="1" x="7" y="0.342168092799672"></rect><rect fill="#2563EB" height="0.5587862848225457" width="1" x="8" y="0.44121371517745434"></rect><rect fill="#2563EB" height="0.5576529813173976" width="1" x="9" y="0.4423470186826024"></rect><rect fill="#2563EB" height="0.5504243217842637" width="1" x="10" y="0.4495756782157363"></rect><rect fill="#2563EB" height="0.5975990123992437" width="1" x="11" y="0.40240098760075627"></rect><rect fill="#2563EB" height="0.6541220400267933" width="1" x="12" y="0.3458779599732067"></rect><rect fill="#2563EB" height="0.5909335762781426" width="1" x="13" y="0.4090664237218574"></rect><rect fill="#2563EB" height="0.5355796852899164" width="1" x="14" y="0.4644203147100836"></rect><rect fill="#2563EB" height="0.5323859140384266" width="1" x="15" y="0.4676140859615734"></rect><rect fill="#2563EB" height="0.5181512493814864" width="1" x="16" y="0.4818487506185136"></rect><rect fill="#2563EB" height="0.49868331092166723" width="1" x="17" y="0.5013166890783327"></rect><rect fill="#2563EB" height="0.5359502288065999" width="1" x="18" y="0.4640497711934001"></rect><rect fill="#2563EB" height="0.5194101100220476" width="1" x="19" y="0.4805898899779524"></rect><rect fill="#2563EB" height="0.5026766524942257" width="1" x="20" y="0.49732334750577434"></rect><rect fill="#2563EB" height="0.46661601062277924" width="1" x="21" y="0.5333839893772208"></rect><rect fill="#2563EB" height="0.6219629092766982" width="1" x="22" y="0.3780370907233018"></rect><rect fill="#2563EB" height="0.5097925368188027" width="1" x="23" y="0.49020746318119734"></rect><rect fill="#2563EB" height="0.5045389091673412" width="1" x="24" y="0.49546109083265877"></rect><rect fill="#2563EB" height="0.520908353059675" width="1" x="25" y="0.479091646940325"></rect><rect fill="#2563EB" height="0.4962946586220349" width="1" x="26" y="0.5037053413779651"></rect><rect fill="#2563EB" height="0.47385830807966645" width="1" x="27" y="0.5261416919203336"></rect><rect fill="#2563EB" height="0.5036030004520864" width="1" x="28" y="0.4963969995479136"></rect><rect fill="#2563EB" height="0.6372886851604814" width="1" x="29" y="0.3627113148395186"></rect><rect fill="#2563EB" height="0.5636463843106672" width="1" x="30" y="0.43635361568933284"></rect><rect fill="#2563EB" height="0.5362053171495265" width="1" x="31" y="0.46379468285047354"></rect><rect fill="#2563EB" height="0.4962177510488282" width="1" x="32" y="0.5037822489511719"></rect><rect fill="#2563EB" height="0.4576342798134278" width="1" x="33" y="0.5423657201865721"></rect><rect fill="#2563EB" height="0.5008302491429287" width="1" x="34" y="0.49916975085707127"></rect><rect fill="#2563EB" height="0.5370645776871719" width="1" x="35" y="0.46293542231282814"></rect><rect fill="#2563EB" height="0.5921348602294623" width="1" x="36" y="0.40786513977053773"></rect><rect fill="#2563EB" height="0.6660886861611587" width="1" x="37" y="0.3339113138388413"></rect><rect fill="#2563EB" height="0.6218971839415997" width="1" x="38" y="0.37810281605840035"></rect><rect fill="#2563EB" height="0.5876716230585296" width="1" x="39" y="0.4123283769414704"></rect><rect fill="#2563EB" height="0.5422670607420087" width="1" x="40" y="0.4577329392579913"></rect><rect fill="#2563EB" height="0.5896630543644209" width="1" x="41" y="0.4103369456355791"></rect><rect fill="#2563EB" height="0.6257640004640063" width="1" x="42" y="0.37423599953599374"></rect><rect fill="#2563EB" height="0.615286426557258" width="1" x="43" y="0.38471357344274204"></rect><rect fill="#2563EB" height="0.4952188520507895" width="1" x="44" y="0.5047811479492105"></rect><rect fill="#2563EB" height="0.5422964923061475" width="1" x="45" y="0.4577035076938525"></rect><rect fill="#2563EB" height="0.5499946984458306" width="1" x="46" y="0.4500053015541694"></rect><rect fill="#2563EB" height="0.4923045173275836" width="1" x="47" y="0.5076954826724164"></rect><rect fill="#2563EB" height="0.6030878698181233" width="1" x="48" y="0.39691213018187665"></rect><rect fill="#2563EB" height="0.5368363765207247" width="1" x="49" y="0.4631636234792753"></rect><rect fill="#2563EB" height="0.5498541987203068" width="1" x="50" y="0.45014580127969317"></rect><rect fill="#2563EB" height="0.4971695708924096" width="1" x="51" y="0.5028304291075905"></rect><rect fill="#2563EB" height="0.7605204976562953" width="1" x="52" y="0.23947950234370474"></rect><rect fill="#2563EB" height="0.4933662671654944" width="1" x="53" y="0.5066337328345056"></rect><rect fill="#2563EB" height="0.5139595748022667" width="1" x="54" y="0.4860404251977333"></rect><rect fill="#2563EB" height="0.5001079355310599" width="1" x="55" y="0.4998920644689401"></rect><rect fill="#2563EB" height="0.5313604016738745" width="1" x="56" y="0.46863959832612545"></rect><rect fill="#2563EB" height="0.5278460550417783" width="1" x="57" y="0.4721539449582217"></rect><rect fill="#2563EB" height="0.5323991750255715" width="1" x="58" y="0.46760082497442845"></rect><rect fill="#2563EB" height="0.5686769278117454" width="1" x="59" y="0.4313230721882546"></rect><rect fill="#2563EB" height="0.5376007880765536" width="1" x="60" y="0.46239921192344635"></rect><rect fill="#2563EB" height="0.4898831360395132" width="1" x="61" y="0.5101168639604867"></rect><rect fill="#2563EB" height="0.4840009331030887" width="1" x="62" y="0.5159990668969112"></rect><rect fill="#2563EB" height="0.4957205423872584" width="1" x="63" y="0.5042794576127416"></rect><rect fill="#2563EB" height="0.5841920207684342" width="1" x="64" y="0.41580797923156576"></rect><rect fill="#2563EB" height="0.551926834917705" width="1" x="65" y="0.448073165082295"></rect><rect fill="#2563EB" height="0.5574018345795801" width="1" x="66" y="0.44259816542041985"></rect><rect fill="#2563EB" height="0.6615593529871467" width="1" x="67" y="0.33844064701285326"></rect><rect fill="#2563EB" height="0.4982901827043716" width="1" x="68" y="0.5017098172956285"></rect><rect fill="#2563EB" height="0.8516392600578285" width="1" x="69" y="0.14836073994217147"></rect><rect fill="#2563EB" height="0.4953760786171506" width="1" x="70" y="0.5046239213828494"></rect><rect fill="#2563EB" height="0.5891269366859182" width="1" x="71" y="0.4108730633140818"></rect><rect fill="#2563EB" height="0.6220707831460724" width="1" x="72" y="0.37792921685392755"></rect><rect fill="#2563EB" height="0.5609840776340539" width="1" x="73" y="0.4390159223659461"></rect><rect fill="#2563EB" height="0.4981542722991396" width="1" x="74" y="0.5018457277008603"></rect><rect fill="#2563EB" height="0.5619006676213755" width="1" x="75" y="0.43809933237862453"></rect><rect fill="#2563EB" height="0.5085613561784192" width="1" x="76" y="0.49143864382158076"></rect><rect fill="#2563EB" height="0.5187091449363689" width="1" x="77" y="0.4812908550636311"></rect><rect fill="#2563EB" height="0.8867572994170125" width="1" x="78" y="0.11324270058298747"></rect><rect fill="#2563EB" height="0.6562567379587688" width="1" x="79" y="0.3437432620412312"></rect><rect fill="#2563EB" height="0.49618911172270613" width="1" x="80" y="0.5038108882772938"></rect><rect fill="#2563EB" height="0.536487482128233" width="1" x="81" y="0.46351251787176695"></rect><rect fill="#2563EB" height="0.5221538766234937" width="1" x="82" y="0.47784612337650634"></rect><rect fill="#2563EB" height="1" width="1" x="83" y="0"></rect><rect fill="#2563EB" height="0.5418185052307148" width="1" x="84" y="0.45818149476928516"></rect><rect fill="#2563EB" height="0.49480884359777944" width="1" x="85" y="0.5051911564022206"></rect><rect fill="#2563EB" height="0.5029651855564776" width="1" x="86" y="0.4970348144435224"></rect><rect fill="#2563EB" height="0.6457752251305341" width="1" x="87" y="0.3542247748694659"></rect><rect fill="#2563EB" height="0.6020234108733066" width="1" x="88" y="0.3979765891266934"></rect><rect fill="#2563EB" height="0.5310515507152067" width="1" x="89" y="0.4689484492847933"></rect><rect fill="#2563EB" height="0.5589405770411129" width="1" x="90" y="0.4410594229588871"></rect><rect fill="#2563EB" height="0.5048448060266171" width="1" x="91" y="0.4951551939733829"></rect><rect fill="#2563EB" height="0.1307394809071594" width="1" x="92" y="0.8692605190928406"></rect><rect fill="#2563EB" height="0.001129650788051087" width="1" x="93" y="0.998870349211949"></rect><rect fill="#2563EB" height="0.00013149794496555164" width="1" x="94" y="0.9998685020550344"></rect><rect fill="#2563EB" height="0.000012883921781014747" width="1" x="95" y="0.999987116078219"></rect><rect fill="#2563EB" height="7.284425093618406e-8" width="1" x="96" y="0.999999927155749"></rect><rect fill="#2563EB" height="0" width="1" x="97" y="1"></rect><rect fill="#2563EB" height="0" width="1" x="98" y="1"></rect><rect fill="#2563EB" height="0" width="1" x="99" y="1"></rect></svg>