<svg xmlns="http://www.w3.org/2000/svg" preserveAspectRatio="none" viewBox="0 0 100 1"><rect fill="#2563EB" height="0.04215971562262763" width="1" x="0" y="0.9578402843773723"></rect><rect fill="#2563EB" height="0.16033090899951255" width="1" x="1" y="0.8396690910004875"></rect><rect fill="#2563EB" height="0.18060858137481456" width="1" x="2" y="0.8193914186251854"></rect><rect fill="#2563EB" height="0.16106782907892278" width="1" x="3" y="0.8389321709210772"></rect><rect fill="#2563EB" height="0.20921162101173732" width="1" x="4" y="0.7907883789882627"></rect><rect fill="#2563EB" height="0.21520354895230154" width="1" x="5" y="0.7847964510476985"></rect><rect fill="#2563EB" height="0.27107301867531997" width="1" x="6" y="0.72892698132468"></rect><rect fill="#2563EB" height="0.2876939824841137" width="1" x="7" y="0.7123060175158863"></rect><rect fill="#2563EB" height="0.3312204840623111" width="1" x="8" y="0.6687795159376889"></rect><rect fill="#2563EB" height="0.40521526282791326" width="1" x="9" y="0.5947847371720867"></rect><rect fill="#2563EB" height="0.746196838960994" width="1" x="10" y="0.253803161039006"></rect><rect fill="#2563EB" height="0.6411892139582223" width="1" x="11" y="0.35881078604177774"></rect><rect fill="#2563EB" height="0.636903472062171" width="1" x="12" y="0.363096527937829"></rect><rect fill="#2563EB" height="0.7501474094898555" width="1" x="13" y="0.24985259051014452"></rect><rect fill="#2563EB" height="0.6649220122590107" width="1" x="14" y="0.3350779877409893"></rect><rect fill="#2563EB" height="0.6160336754703581" width="1" x="15" y="0.38396632452964186"></rect><rect fill="#2563EB" height="0.592532318475337" width="1" x="16" y="0.40746768152466295"></rect><rect fill="#2563EB" height="0.6089571795832863" width="1" x="17" y="0.3910428204167137"></rect><rect fill="#2563EB" height="0.7702111702399952" width="1" x="18" y="0.2297888297600048"></rect><rect fill="#2563EB" height="0.6728872881761518" width="1" x="19" y="0.32711271182384816"></rect><rect fill="#2563EB" height="0.6546293266317346" width="1" x="20" y="0.34537067336826544"></rect><rect fill="#2563EB" height="0.6336253271093398" width="1" x="21" y="0.36637467289066017"></rect><rect fill="#2563EB" height="0.7001571583347496" width="1" x="22" y="0.29984284166525044"></rect><rect fill="#2563EB" height="0.7241864900881655" width="1" x="23" y="0.2758135099118345"></rect><rect fill="#2563EB" height="0.6456120936279621" width="1" x="24" y="0.3543879063720379"></rect><rect fill="#2563EB" height="0.7298277356809602" width="1" x="25" y="0.27017226431903985"></rect><rect fill="#2563EB" height="0.6349888055926786" width="1" x="26" y="0.36501119440732144"></rect><rect fill="#2563EB" height="0.842266301735746" width="1" x="27" y="0.15773369826425399"></rect><rect fill="#2563EB" height="0.8774518099001366" width="1" x="28" y="0.1225481900998634"></rect><rect fill="#2563EB" height="0.6125443266986674" width="1" x="29" y="0.38745567330133257"></rect><rect fill="#2563EB" height="0.6514631018032226" width="1" x="30" y="0.34853689819677736"></rect><rect fill="#2563EB" height="0.6396422273790708" width="1" x="31" y="0.36035777262092916"></rect><rect fill="#2563EB" height="0.6435146078246854" width="1" x="32" y="0.3564853921753146"></rect><rect fill="#2563EB" height="0.7289803375388986" width="1" x="33" y="0.27101966246110143"></rect><rect fill="#2563EB" height="0.7614654617830332" width="1" x="34" y="0.2385345382169668"></rect><rect fill="#2563EB" height="0.8618348116675267" width="1" x="35" y="0.13816518833247327"></rect><rect fill="#2563EB" height="0.8966570455970571" width="1" x="36" y="0.10334295440294294"></rect><rect fill="#2563EB" height="0.7205414076733259" width="1" x="37" y="0.27945859232667414"></rect><rect fill="#2563EB" height="0.7037745369928059" width="1" x="38" y="0.2962254630071941"></rect><rect fill="#2563EB" height="0.6554759027112715" width="1" x="39" y="0.34452409728872846"></rect><rect fill="#2563EB" height="0.692148329381972" width="1" x="40" y="0.307851670618028"></rect><rect fill="#2563EB" height="0.6643433682021186" width="1" x="41" y="0.3356566317978814"></rect><rect fill="#2563EB" height="0.6133623668240424" width="1" x="42" y="0.38663763317595756"></rect><rect fill="#2563EB" height="0.7695580106313056" width="1" x="43" y="0.23044198936869442"></rect><rect fill="#2563EB" height="0.849873967029865" width="1" x="44" y="0.15012603297013505"></rect><rect fill="#2563EB" height="0.8611537471469198" width="1" x="45" y="0.13884625285308017"></rect><rect fill="#2563EB" height="0.7836648882543654" width="1" x="46" y="0.21633511174563458"></rect><rect fill="#2563EB" height="0.8272061726996077" width="1" x="47" y="0.17279382730039228"></rect><rect fill="#2563EB" height="0.8584685592044523" width="1" x="48" y="0.1415314407955477"></rect><rect fill="#2563EB" height="0.8609057482673812" width="1" x="49" y="0.1390942517326188"></rect><rect fill="#2563EB" height="0.8437826633396714" width="1" x="50" y="0.15621733666032855"></rect><rect fill="#2563EB" height="0.8803801930760079" width="1" x="51" y="0.1196198069239921"></rect><rect fill="#2563EB" height="0.8277337635684585" width="1" x="52" y="0.1722662364315415"></rect><rect fill="#2563EB" height="0.8925131055793175" width="1" x="53" y="0.10748689442068249"></rect><rect fill="#2563EB" height="0.8571946280345752" width="1" x="54" y="0.14280537196542475"></rect><rect fill="#2563EB" height="0.8643267196102392" width="1" x="55" y="0.1356732803897608"></rect><rect fill="#2563EB" height="0.9222596735570728" width="1" x="56" y="0.07774032644292717"></rect><rect fill="#2563EB" height="0.8524991697019985" width="1" x="57" y="0.14750083029800154"></rect><rect fill="#2563EB" height="0.9053581418863172" width="1" x="58" y="0.09464185811368275"></rect><rect fill="#2563EB" height="0.8196549252127697" width="1" x="59" y="0.18034507478723028"></rect><rect fill="#2563EB" height="0.9306097723812297" width="1" x="60" y="0.06939022761877034"></rect><rect fill="#2563EB" height="0.8522897476473383" width="1" x="61" y="0.14771025235266166"></rect><rect fill="#2563EB" height="0.8215217434031702" width="1" x="62" y="0.1784782565968298"></rect><rect fill="#2563EB" height="0.8598840856331865" width="1" x="63" y="0.14011591436681348"></rect><rect fill="#2563EB" height="0.9428329572960906" width="1" x="64" y="0.057167042703909376"></rect><rect fill="#2563EB" height="0.9357050329374461" width="1" x="65" y="0.06429496706255389"></rect><rect fill="#2563EB" height="0.8579882911039685" width="1" x="66" y="0.14201170889603154"></rect><rect fill="#2563EB" height="0.7343121291563536" width="1" x="67" y="0.2656878708436464"></rect><rect fill="#2563EB" height="0.8290303420473014" width="1" x="68" y="0.17096965795269858"></rect><rect fill="#2563EB" height="0.8354450918776495" width="1" x="69" y="0.16455490812235052"></rect><rect fill="#2563EB" height="0.8308417965386434" width="1" x="70" y="0.16915820346135657"></rect><rect fill="#2563EB" height="0.9021065538673255" width="1" x="71" y="0.09789344613267448"></rect><rect fill="#2563EB" height="0.9720440418068652" width="1" x="72" y="0.02795595819313479"></rect><rect fill="#2563EB" height="0.981211092926743" width="1" x="73" y="0.018788907073256977"></rect><rect fill="#2563EB" height="0.8914173600275412" width="1" x="74" y="0.10858263997245876"></rect><rect fill="#2563EB" height="0.8583435196892039" width="1" x="75" y="0.14165648031079614"></rect><rect fill="#2563EB" height="0.7068159643585615" width="1" x="76" y="0.29318403564143847"></rect><rect fill="#2563EB" height="0.8335276600409881" width="1" x="77" y="0.1664723399590119"></rect><rect fill="#2563EB" height="0.843662197639342" width="1" x="78" y="0.15633780236065797"></rect><rect fill="#2563EB" height="0.8203107394140443" width="1" x="79" y="0.1796892605859557"></rect><rect fill="#2563EB" height="0.7927442942924299" width="1" x="80" y="0.20725570570757013"></rect><rect fill="#2563EB" height="0.9631935803478122" width="1" x="81" y="0.03680641965218778"></rect><rect fill="#2563EB" height="1" width="1" x="82" y="0"></rect><rect fill="#2563EB" height="0.9466862616322691" width="1" x="83" y="0.0533137383677309"></rect><rect fill="#2563EB" height="0.897241794658347" width="1" x="84" y="0.10275820534165303"></rect><rect fill="#2563EB" height="0.8836549026677742" width="1" x="85" y="0.11634509733222576"></rect><rect fill="#2563EB" height="0.9343729104830683" width="1" x="86" y="0.06562708951693175"></rect><rect fill="#2563EB" height="0.8634629570388396" width="1" x="87" y="0.13653704296116043"></rect><rect fill="#2563EB" height="0.9117224938095687" width="1" x="88" y="0.08827750619043129"></rect><rect fill="#2563EB" height="0.8530772639073353" width="1" x="89" y="0.1469227360926647"></rect><rect fill="#2563EB" height="0.9175804955927942" width="1" x="90" y="0.0824195044072058"></rect><rect fill="#2563EB" height="0.9574784634358535" width="1" x="91" y="0.04252153656414648"></rect><rect fill="#2563EB" height="0.6181368640123842" width="1" x="92" y="0.3818631359876158"></rect><rect fill="#2563EB" height="0.11898548364672312" width="1" x="93" y="0.8810145163532769"></rect><rect fill="#2563EB" height="0.04165284449264092" width="1" x="94" y="0.958347155507359"></rect><rect fill="#2563EB" height="0.017526806322294957" width="1" x="95" y="0.982473193677705"></rect><rect fill="#2563EB" height="0.007751574308328202" width="1" x="96" y="0.9922484256916718"></rect><rect fill="#2563EB" height="0.0033047639652839596" width="1" x="97" y="0.996695236034716"></rect><rect fill="#2563EB" height="0.0012189964669988593" width="1" x="98" y="0.9987810035330011"></rect><rect fill="#2563EB" height="0.00029531580833733076" width="1" x="99" y="0.9997046841916627"></rect></svg>