<svg xmlns="http://www.w3.org/2000/svg" preserveAspectRatio="none" viewBox="0 0 100 1"><rect fill="#2563EB" height="0.7280230462158677" width="1" x="0" y="0.27197695378413234"></rect><rect fill="#2563EB" height="0.6205594644642854" width="1" x="1" y="0.37944053553571455"></rect><rect fill="#2563EB" height="0.4875143698280445" width="1" x="2" y="0.5124856301719555"></rect><rect fill="#2563EB" height="0.47018206760358355" width="1" x="3" y="0.5298179323964165"></rect><rect fill="#2563EB" height="0.3966382558996552" width="1" x="4" y="0.6033617441003448"></rect><rect fill="#2563EB" height="0.45146837120134886" width="1" x="5" y="0.5485316287986511"></rect><rect fill="#2563EB" height="0.9165865622824074" width="1" x="6" y="0.08341343771759258"></rect><rect fill="#2563EB" height="0.8569214512275958" width="1" x="7" y="0.14307854877240422"></rect><rect fill="#2563EB" height="0.6586529854766778" width="1" x="8" y="0.34134701452332217"></rect><rect fill="#2563EB" height="0.5237275349271351" width="1" x="9" y="0.4762724650728649"></rect><rect fill="#2563EB" height="0.3856501690912097" width="1" x="10" y="0.6143498309087903"></rect><rect fill="#2563EB" height="0.391680168160408" width="1" x="11" y="0.6083198318395919"></rect><rect fill="#2563EB" height="0.7231791682462156" width="1" x="12" y="0.27682083175378436"></rect><rect fill="#2563EB" height="0.8086977646729272" width="1" x="13" y="0.1913022353270728"></rect><rect fill="#2563EB" height="0.623593300426742" width="1" x="14" y="0.376406699573258"></rect><rect fill="#2563EB" height="0.811586435531083" width="1" x="15" y="0.188413564468917"></rect><rect fill="#2563EB" height="0.5078302721088407" width="1" x="16" y="0.4921697278911593"></rect><rect fill="#2563EB" height="0.5890526346291699" width="1" x="17" y="0.4109473653708301"></rect><rect fill="#2563EB" height="0.5115103040752631" width="1" x="18" y="0.4884896959247369"></rect><rect fill="#2563EB" height="0.7238589874480748" width="1" x="19" y="0.27614101255192525"></rect><rect fill="#2563EB" height="0.4015867381479199" width="1" x="20" y="0.5984132618520801"></rect><rect fill="#2563EB" height="0.3832481328950383" width="1" x="21" y="0.6167518671049617"></rect><rect fill="#2563EB" height="0.3124423091030661" width="1" x="22" y="0.6875576908969339"></rect><rect fill="#2563EB" height="0.36811232801121396" width="1" x="23" y="0.631887671988786"></rect><rect fill="#2563EB" height="0.4099857626957948" width="1" x="24" y="0.5900142373042052"></rect><rect fill="#2563EB" height="0.9339545317081728" width="1" x="25" y="0.06604546829182723"></rect><rect fill="#2563EB" height="0.9546904607403343" width="1" x="26" y="0.04530953925966574"></rect><rect fill="#2563EB" height="0.6683056256255191" width="1" x="27" y="0.3316943743744809"></rect><rect fill="#2563EB" height="0.6150554573174242" width="1" x="28" y="0.38494454268257583"></rect><rect fill="#2563EB" height="0.8405437028637632" width="1" x="29" y="0.15945629713623677"></rect><rect fill="#2563EB" height="1" width="1" x="30" y="0"></rect><rect fill="#2563EB" height="0.7682050106508885" width="1" x="31" y="0.23179498934911147"></rect><rect fill="#2563EB" height="0.647772949856953" width="1" x="32" y="0.352227050143047"></rect><rect fill="#2563EB" height="0.4467055045738544" width="1" x="33" y="0.5532944954261456"></rect><rect fill="#2563EB" height="0.2913788107289631" width="1" x="34" y="0.7086211892710369"></rect><rect fill="#2563EB" height="0.33179216992806904" width="1" x="35" y="0.668207830071931"></rect><rect fill="#2563EB" height="0.4980754308857475" width="1" x="36" y="0.5019245691142524"></rect><rect fill="#2563EB" height="0.7892192185725309" width="1" x="37" y="0.21078078142746914"></rect><rect fill="#2563EB" height="0.531106310968962" width="1" x="38" y="0.468893689031038"></rect><rect fill="#2563EB" height="0.4600582607752147" width="1" x="39" y="0.5399417392247853"></rect><rect fill="#2563EB" height="0.9139128996532214" width="1" x="40" y="0.08608710034677858"></rect><rect fill="#2563EB" height="0.6152923423722545" width="1" x="41" y="0.3847076576277455"></rect><rect fill="#2563EB" height="0.5521807424333391" width="1" x="42" y="0.44781925756666086"></rect><rect fill="#2563EB" height="0.7968532749977649" width="1" x="43" y="0.20314672500223507"></rect><rect fill="#2563EB" height="0.7104820132340913" width="1" x="44" y="0.2895179867659087"></rect><rect fill="#2563EB" height="0.594050617708386" width="1" x="45" y="0.40594938229161404"></rect><rect fill="#2563EB" height="0.8172348366998242" width="1" x="46" y="0.18276516330017578"></rect><rect fill="#2563EB" height="0.5154938712399016" width="1" x="47" y="0.48450612876009835"></rect><rect fill="#2563EB" height="0.7128638358844073" width="1" x="48" y="0.28713616411559273"></rect><rect fill="#2563EB" height="0.48352134778441064" width="1" x="49" y="0.5164786522155893"></rect><rect fill="#2563EB" height="0.9487221046120631" width="1" x="50" y="0.05127789538793692"></rect><rect fill="#2563EB" height="0.6157148733520632" width="1" x="51" y="0.3842851266479368"></rect><rect fill="#2563EB" height="0.7147081566126995" width="1" x="52" y="0.2852918433873005"></rect><rect fill="#2563EB" height="0.485351349276904" width="1" x="53" y="0.5146486507230961"></rect><rect fill="#2563EB" height="0.4497987777631536" width="1" x="54" y="0.5502012222368464"></rect><rect fill="#2563EB" height="0.3863134137508905" width="1" x="55" y="0.6136865862491094"></rect><rect fill="#2563EB" height="0.7794659941850416" width="1" x="56" y="0.2205340058149584"></rect><rect fill="#2563EB" height="0.8929293814057282" width="1" x="57" y="0.1070706185942718"></rect><rect fill="#2563EB" height="0.7195717282509011" width="1" x="58" y="0.2804282717490989"></rect><rect fill="#2563EB" height="0.8725246099314068" width="1" x="59" y="0.1274753900685932"></rect><rect fill="#2563EB" height="0.5560656117024358" width="1" x="60" y="0.44393438829756415"></rect><rect fill="#2563EB" height="0.5165297455005262" width="1" x="61" y="0.4834702544994738"></rect><rect fill="#2563EB" height="0.681094118680132" width="1" x="62" y="0.31890588131986797"></rect><rect fill="#2563EB" height="0.585860880051796" width="1" x="63" y="0.41413911994820396"></rect><rect fill="#2563EB" height="0.7251443556825479" width="1" x="64" y="0.27485564431745213"></rect><rect fill="#2563EB" height="0.5670043913626941" width="1" x="65" y="0.4329956086373059"></rect><rect fill="#2563EB" height="0.6146848113838519" width="1" x="66" y="0.3853151886161481"></rect><rect fill="#2563EB" height="0.5299976045922878" width="1" x="67" y="0.47000239540771216"></rect><rect fill="#2563EB" height="0.6387464886067438" width="1" x="68" y="0.36125351139325623"></rect><rect fill="#2563EB" height="0.7776212684548574" width="1" x="69" y="0.22237873154514265"></rect><rect fill="#2563EB" height="0.6274400159801036" width="1" x="70" y="0.37255998401989643"></rect><rect fill="#2563EB" height="0.8963459571528407" width="1" x="71" y="0.10365404284715929"></rect><rect fill="#2563EB" height="0.35041559842255543" width="1" x="72" y="0.6495844015774446"></rect><rect fill="#2563EB" height="0.4465852361561976" width="1" x="73" y="0.5534147638438024"></rect><rect fill="#2563EB" height="0.38278665738556433" width="1" x="74" y="0.6172133426144357"></rect><rect fill="#2563EB" height="0.9235627880465546" width="1" x="75" y="0.07643721195344544"></rect><rect fill="#2563EB" height="0.5800328965043979" width="1" x="76" y="0.41996710349560207"></rect><rect fill="#2563EB" height="0.7373066686649925" width="1" x="77" y="0.2626933313350075"></rect><rect fill="#2563EB" height="0.4656417117542152" width="1" x="78" y="0.5343582882457848"></rect><rect fill="#2563EB" height="0.4476131055489396" width="1" x="79" y="0.5523868944510604"></rect><rect fill="#2563EB" height="0.3833512417413433" width="1" x="80" y="0.6166487582586567"></rect><rect fill="#2563EB" height="0.8207997110868726" width="1" x="81" y="0.17920028891312745"></rect><rect fill="#2563EB" height="0.906579072298626" width="1" x="82" y="0.093420927701374"></rect><rect fill="#2563EB" height="0.725708140087331" width="1" x="83" y="0.274291859912669"></rect><rect fill="#2563EB" height="0.8666839546762203" width="1" x="84" y="0.13331604532377972"></rect><rect fill="#2563EB" height="0.5630560623110363" width="1" x="85" y="0.43694393768896367"></rect><rect fill="#2563EB" height="0.5360803472365198" width="1" x="86" y="0.46391965276348024"></rect><rect fill="#2563EB" height="0.7815163382030076" width="1" x="87" y="0.2184836617969924"></rect><rect fill="#2563EB" height="0.5706148299334597" width="1" x="88" y="0.4293851700665403"></rect><rect fill="#2563EB" height="0.7002711951619779" width="1" x="89" y="0.2997288048380221"></rect><rect fill="#2563EB" height="0.5785074116333003" width="1" x="90" y="0.42149258836669967"></rect><rect fill="#2563EB" height="0.6293777350388842" width="1" x="91" y="0.37062226496111583"></rect><rect fill="#2563EB" height="0.5018501047264835" width="1" x="92" y="0.4981498952735165"></rect><rect fill="#2563EB" height="0.4208354665498285" width="1" x="93" y="0.5791645334501715"></rect><rect fill="#2563EB" height="0.5427839639600083" width="1" x="94" y="0.4572160360399917"></rect><rect fill="#2563EB" height="0.5693304338763951" width="1" x="95" y="0.43066956612360485"></rect><rect fill="#2563EB" height="0.8841758845992584" width="1" x="96" y="0.11582411540074156"></rect><rect fill="#2563EB" height="0.30125993470000173" width="1" x="97" y="0.6987400652999982"></rect><rect fill="#2563EB" height="0.1952615640792917" width="1" x="98" y="0.8047384359207083"></rect><rect fill="#2563EB" height="0.02258500707661353" width="1" x="99" y="0.9774149929233865"></rect></svg>