<svg xmlns="http://www.w3.org/2000/svg" preserveAspectRatio="none" viewBox="0 0 100 1"><rect fill="#2563EB" height="0.8685865170949548" width="1" x="0" y="0.13141348290504518"></rect><rect fill="#2563EB" height="0.9509160598978057" width="1" x="1" y="0.0490839401021943"></rect><rect fill="#2563EB" height="0.7907752686382307" width="1" x="2" y="0.20922473136176933"></rect><rect fill="#2563EB" height="0.8100879860068997" width="1" x="3" y="0.18991201399310031"></rect><rect fill="#2563EB" height="0.7495705837097788" width="1" x="4" y="0.2504294162902212"></rect><rect fill="#2563EB" height="0.703072810761546" width="1" x="5" y="0.29692718923845396"></rect><rect fill="#2563EB" height="0.8518608031911686" width="1" x="6" y="0.14813919680883136"></rect><rect fill="#2563EB" height="0.8162607465706196" width="1" x="7" y="0.18373925342938036"></rect><rect fill="#2563EB" height="0.6467643942090651" width="1" x="8" y="0.35323560579093494"></rect><rect fill="#2563EB" height="0.8115234611473865" width="1" x="9" y="0.1884765388526135"></rect><rect fill="#2563EB" height="0.6906777817948375" width="1" x="10" y="0.3093222182051625"></rect><rect fill="#2563EB" height="0.8133550085544337" width="1" x="11" y="0.18664499144556634"></rect><rect fill="#2563EB" height="0.9147268209027309" width="1" x="12" y="0.08527317909726906"></rect><rect fill="#2563EB" height="0.901594410579305" width="1" x="13" y="0.098405589420695"></rect><rect fill="#2563EB" height="0.9663878200655479" width="1" x="14" y="0.03361217993445209"></rect><rect fill="#2563EB" height="0.7315916914599045" width="1" x="15" y="0.26840830854009545"></rect><rect fill="#2563EB" height="0.8151977220847466" width="1" x="16" y="0.1848022779152534"></rect><rect fill="#2563EB" height="0.8945825595712964" width="1" x="17" y="0.1054174404287036"></rect><rect fill="#2563EB" height="0.8135555389452008" width="1" x="18" y="0.18644446105479917"></rect><rect fill="#2563EB" height="0.7733440760031155" width="1" x="19" y="0.2266559239968845"></rect><rect fill="#2563EB" height="0.8147006873293787" width="1" x="20" y="0.18529931267062127"></rect><rect fill="#2563EB" height="0.7515422712182183" width="1" x="21" y="0.24845772878178174"></rect><rect fill="#2563EB" height="0.8079200441002722" width="1" x="22" y="0.19207995589972782"></rect><rect fill="#2563EB" height="0.8184590737525447" width="1" x="23" y="0.18154092624745533"></rect><rect fill="#2563EB" height="0.7358017390816018" width="1" x="24" y="0.26419826091839815"></rect><rect fill="#2563EB" height="0.8017474893059199" width="1" x="25" y="0.19825251069408012"></rect><rect fill="#2563EB" height="0.7637487179791896" width="1" x="26" y="0.23625128202081036"></rect><rect fill="#2563EB" height="0.7663875530111781" width="1" x="27" y="0.2336124469888219"></rect><rect fill="#2563EB" height="0.6216734431194426" width="1" x="28" y="0.3783265568805574"></rect><rect fill="#2563EB" height="0.6765896139045662" width="1" x="29" y="0.3234103860954338"></rect><rect fill="#2563EB" height="0.9248198141147873" width="1" x="30" y="0.07518018588521269"></rect><rect fill="#2563EB" height="0.8602119770991539" width="1" x="31" y="0.13978802290084613"></rect><rect fill="#2563EB" height="0.7904556977572086" width="1" x="32" y="0.2095443022427914"></rect><rect fill="#2563EB" height="0.5242961089939807" width="1" x="33" y="0.4757038910060193"></rect><rect fill="#2563EB" height="0.6117239171212754" width="1" x="34" y="0.3882760828787246"></rect><rect fill="#2563EB" height="0.7800963411915355" width="1" x="35" y="0.21990365880846452"></rect><rect fill="#2563EB" height="0.8163194186152436" width="1" x="36" y="0.1836805813847564"></rect><rect fill="#2563EB" height="0.9367420602932388" width="1" x="37" y="0.06325793970676119"></rect><rect fill="#2563EB" height="0.8544135493068422" width="1" x="38" y="0.1455864506931578"></rect><rect fill="#2563EB" height="0.7239534571236843" width="1" x="39" y="0.2760465428763157"></rect><rect fill="#2563EB" height="0.7369228941150626" width="1" x="40" y="0.2630771058849374"></rect><rect fill="#2563EB" height="0.8915581728192248" width="1" x="41" y="0.10844182718077522"></rect><rect fill="#2563EB" height="0.8064683477491599" width="1" x="42" y="0.19353165225084012"></rect><rect fill="#2563EB" height="0.889483290409348" width="1" x="43" y="0.11051670959065196"></rect><rect fill="#2563EB" height="0.8168229876782005" width="1" x="44" y="0.1831770123217995"></rect><rect fill="#2563EB" height="0.6933178210422338" width="1" x="45" y="0.30668217895776617"></rect><rect fill="#2563EB" height="0.7727116918280509" width="1" x="46" y="0.22728830817194912"></rect><rect fill="#2563EB" height="0.8741048691193772" width="1" x="47" y="0.12589513088062276"></rect><rect fill="#2563EB" height="0.789422552450759" width="1" x="48" y="0.21057744754924101"></rect><rect fill="#2563EB" height="0.8985278433914781" width="1" x="49" y="0.10147215660852194"></rect><rect fill="#2563EB" height="0.825243816232951" width="1" x="50" y="0.17475618376704904"></rect><rect fill="#2563EB" height="0.724297830543972" width="1" x="51" y="0.275702169456028"></rect><rect fill="#2563EB" height="0.7082612883750274" width="1" x="52" y="0.29173871162497256"></rect><rect fill="#2563EB" height="0.8689994294732303" width="1" x="53" y="0.13100057052676972"></rect><rect fill="#2563EB" height="0.7613579002219233" width="1" x="54" y="0.2386420997780767"></rect><rect fill="#2563EB" height="0.8019116822698404" width="1" x="55" y="0.19808831773015956"></rect><rect fill="#2563EB" height="0.7461413331647806" width="1" x="56" y="0.2538586668352194"></rect><rect fill="#2563EB" height="0.6379574074740051" width="1" x="57" y="0.3620425925259949"></rect><rect fill="#2563EB" height="0.6296971842581456" width="1" x="58" y="0.3703028157418544"></rect><rect fill="#2563EB" height="0.831578421084191" width="1" x="59" y="0.168421578915809"></rect><rect fill="#2563EB" height="0.6403035745116658" width="1" x="60" y="0.35969642548833425"></rect><rect fill="#2563EB" height="0.7150558186973821" width="1" x="61" y="0.2849441813026179"></rect><rect fill="#2563EB" height="0.9027480057634736" width="1" x="62" y="0.09725199423652642"></rect><rect fill="#2563EB" height="0.59593616077102" width="1" x="63" y="0.40406383922898004"></rect><rect fill="#2563EB" height="0.7926094928903633" width="1" x="64" y="0.2073905071096367"></rect><rect fill="#2563EB" height="0.8535979142719801" width="1" x="65" y="0.14640208572801994"></rect><rect fill="#2563EB" height="0.717478078217041" width="1" x="66" y="0.282521921782959"></rect><rect fill="#2563EB" height="0.5799829426404013" width="1" x="67" y="0.4200170573595987"></rect><rect fill="#2563EB" height="0.6517008567122295" width="1" x="68" y="0.34829914328777045"></rect><rect fill="#2563EB" height="0.6151298804018218" width="1" x="69" y="0.3848701195981782"></rect><rect fill="#2563EB" height="0.6446286535595965" width="1" x="70" y="0.35537134644040347"></rect><rect fill="#2563EB" height="0.8169108476035118" width="1" x="71" y="0.18308915239648815"></rect><rect fill="#2563EB" height="0.7397041857828068" width="1" x="72" y="0.26029581421719317"></rect><rect fill="#2563EB" height="0.8831233695224467" width="1" x="73" y="0.11687663047755326"></rect><rect fill="#2563EB" height="0.8627867271829789" width="1" x="74" y="0.13721327281702111"></rect><rect fill="#2563EB" height="0.766098773606784" width="1" x="75" y="0.23390122639321598"></rect><rect fill="#2563EB" height="0.6509406522961326" width="1" x="76" y="0.3490593477038674"></rect><rect fill="#2563EB" height="0.7370029346938686" width="1" x="77" y="0.26299706530613143"></rect><rect fill="#2563EB" height="1" width="1" x="78" y="0"></rect><rect fill="#2563EB" height="0.9418719333416667" width="1" x="79" y="0.058128066658333255"></rect><rect fill="#2563EB" height="0.8417127653420534" width="1" x="80" y="0.15828723465794658"></rect><rect fill="#2563EB" height="0.699827671729161" width="1" x="81" y="0.30017232827083895"></rect><rect fill="#2563EB" height="0.7659702321982403" width="1" x="82" y="0.23402976780175966"></rect><rect fill="#2563EB" height="0.7427355228685384" width="1" x="83" y="0.2572644771314616"></rect><rect fill="#2563EB" height="0.641654016627145" width="1" x="84" y="0.35834598337285495"></rect><rect fill="#2563EB" height="0.6602975912389352" width="1" x="85" y="0.33970240876106483"></rect><rect fill="#2563EB" height="0.7594964013202187" width="1" x="86" y="0.24050359867978133"></rect><rect fill="#2563EB" height="0.7138956220341254" width="1" x="87" y="0.2861043779658746"></rect><rect fill="#2563EB" height="0.6836005718866004" width="1" x="88" y="0.3163994281133996"></rect><rect fill="#2563EB" height="0.7846815732889321" width="1" x="89" y="0.21531842671106793"></rect><rect fill="#2563EB" height="0.7692185107078988" width="1" x="90" y="0.23078148929210118"></rect><rect fill="#2563EB" height="0.7425262473657159" width="1" x="91" y="0.25747375263428407"></rect><rect fill="#2563EB" height="0.5993757063858809" width="1" x="92" y="0.4006242936141191"></rect><rect fill="#2563EB" height="0.621012383866471" width="1" x="93" y="0.37898761613352905"></rect><rect fill="#2563EB" height="0.6740117024129485" width="1" x="94" y="0.3259882975870515"></rect><rect fill="#2563EB" height="0.9637408516733748" width="1" x="95" y="0.036259148326625246"></rect><rect fill="#2563EB" height="0.44724058696000357" width="1" x="96" y="0.5527594130399964"></rect><rect fill="#2563EB" height="0.004136245111602231" width="1" x="97" y="0.9958637548883977"></rect><rect fill="#2563EB" height="0.000021969511725487657" width="1" x="98" y="0.9999780304882745"></rect><rect fill="#2563EB" height="8.176681382987157e-7" width="1" x="99" y="0.9999991823318617"></rect></svg>