<svg xmlns="http://www.w3.org/2000/svg" preserveAspectRatio="none" viewBox="0 0 100 1"><rect fill="#2563EB" height="0.1404573513887924" width="1" x="0" y="0.8595426486112077"></rect><rect fill="#2563EB" height="0.13274911004836493" width="1" x="1" y="0.8672508899516351"></rect><rect fill="#2563EB" height="0.17955555544904284" width="1" x="2" y="0.8204444445509571"></rect><rect fill="#2563EB" height="0.21694403958226552" width="1" x="3" y="0.7830559604177345"></rect><rect fill="#2563EB" height="0.4088136335658499" width="1" x="4" y="0.5911863664341501"></rect><rect fill="#2563EB" height="0.41898825625420366" width="1" x="5" y="0.5810117437457963"></rect><rect fill="#2563EB" height="0.42305047101676035" width="1" x="6" y="0.5769495289832396"></rect><rect fill="#2563EB" height="0.4389632976885308" width="1" x="7" y="0.5610367023114692"></rect><rect fill="#2563EB" height="0.3850270698757339" width="1" x="8" y="0.6149729301242661"></rect><rect fill="#2563EB" height="0.7055030749657825" width="1" x="9" y="0.29449692503421754"></rect><rect fill="#2563EB" height="0.7113553477516523" width="1" x="10" y="0.2886446522483477"></rect><rect fill="#2563EB" height="0.5707594420213609" width="1" x="11" y="0.42924055797863914"></rect><rect fill="#2563EB" height="0.6803116586414384" width="1" x="12" y="0.3196883413585616"></rect><rect fill="#2563EB" height="0.8882230399330955" width="1" x="13" y="0.11177696006690452"></rect><rect fill="#2563EB" height="0.6961104839564284" width="1" x="14" y="0.3038895160435716"></rect><rect fill="#2563EB" height="0.6933529146992564" width="1" x="15" y="0.3066470853007436"></rect><rect fill="#2563EB" height="0.8069801035206476" width="1" x="16" y="0.19301989647935236"></rect><rect fill="#2563EB" height="0.6358774071688621" width="1" x="17" y="0.3641225928311379"></rect><rect fill="#2563EB" height="0.7145110948365057" width="1" x="18" y="0.28548890516349434"></rect><rect fill="#2563EB" height="0.6726641325830083" width="1" x="19" y="0.3273358674169917"></rect><rect fill="#2563EB" height="0.746736017618823" width="1" x="20" y="0.253263982381177"></rect><rect fill="#2563EB" height="0.7691822759865267" width="1" x="21" y="0.23081772401347334"></rect><rect fill="#2563EB" height="0.8782521321558553" width="1" x="22" y="0.12174786784414471"></rect><rect fill="#2563EB" height="0.7949633062792044" width="1" x="23" y="0.20503669372079558"></rect><rect fill="#2563EB" height="0.7850618146731175" width="1" x="24" y="0.21493818532688247"></rect><rect fill="#2563EB" height="0.8374645196754313" width="1" x="25" y="0.16253548032456866"></rect><rect fill="#2563EB" height="0.7871223692894211" width="1" x="26" y="0.21287763071057886"></rect><rect fill="#2563EB" height="0.8083414702227604" width="1" x="27" y="0.19165852977723963"></rect><rect fill="#2563EB" height="0.7882512073679725" width="1" x="28" y="0.2117487926320275"></rect><rect fill="#2563EB" height="0.7377845895450715" width="1" x="29" y="0.26221541045492847"></rect><rect fill="#2563EB" height="0.6841130750853321" width="1" x="30" y="0.31588692491466785"></rect><rect fill="#2563EB" height="0.7100784286740397" width="1" x="31" y="0.2899215713259603"></rect><rect fill="#2563EB" height="0.7015125584867514" width="1" x="32" y="0.2984874415132486"></rect><rect fill="#2563EB" height="0.7166733502869286" width="1" x="33" y="0.2833266497130714"></rect><rect fill="#2563EB" height="0.5548113914609446" width="1" x="34" y="0.4451886085390554"></rect><rect fill="#2563EB" height="0.7940673295619366" width="1" x="35" y="0.2059326704380634"></rect><rect fill="#2563EB" height="0.6332483386790557" width="1" x="36" y="0.3667516613209443"></rect><rect fill="#2563EB" height="0.6870132552862002" width="1" x="37" y="0.31298674471379984"></rect><rect fill="#2563EB" height="0.6852864784291828" width="1" x="38" y="0.3147135215708172"></rect><rect fill="#2563EB" height="0.9233484206293232" width="1" x="39" y="0.07665157937067679"></rect><rect fill="#2563EB" height="0.7532844747561039" width="1" x="40" y="0.24671552524389606"></rect><rect fill="#2563EB" height="0.6531203397386405" width="1" x="41" y="0.3468796602613595"></rect><rect fill="#2563EB" height="0.8462411939849279" width="1" x="42" y="0.15375880601507208"></rect><rect fill="#2563EB" height="0.5391450457561614" width="1" x="43" y="0.4608549542438386"></rect><rect fill="#2563EB" height="1" width="1" x="44" y="0"></rect><rect fill="#2563EB" height="0.7212115283203062" width="1" x="45" y="0.2787884716796938"></rect><rect fill="#2563EB" height="0.7067015424112295" width="1" x="46" y="0.2932984575887705"></rect><rect fill="#2563EB" height="0.7282986112344445" width="1" x="47" y="0.2717013887655555"></rect><rect fill="#2563EB" height="0.9384301568625856" width="1" x="48" y="0.061569843137414426"></rect><rect fill="#2563EB" height="0.6874839164525707" width="1" x="49" y="0.3125160835474293"></rect><rect fill="#2563EB" height="0.7269088949548103" width="1" x="50" y="0.27309110504518974"></rect><rect fill="#2563EB" height="0.6944785978891791" width="1" x="51" y="0.3055214021108209"></rect><rect fill="#2563EB" height="0.5999818803095552" width="1" x="52" y="0.40001811969044476"></rect><rect fill="#2563EB" height="0.8413554654497829" width="1" x="53" y="0.1586445345502171"></rect><rect fill="#2563EB" height="0.7399917132199644" width="1" x="54" y="0.2600082867800356"></rect><rect fill="#2563EB" height="0.7692806047512796" width="1" x="55" y="0.23071939524872043"></rect><rect fill="#2563EB" height="0.7110879464121764" width="1" x="56" y="0.28891205358782357"></rect><rect fill="#2563EB" height="0.7885834212517697" width="1" x="57" y="0.21141657874823028"></rect><rect fill="#2563EB" height="0.7198538597778115" width="1" x="58" y="0.28014614022218853"></rect><rect fill="#2563EB" height="0.7068799975792052" width="1" x="59" y="0.29312000242079483"></rect><rect fill="#2563EB" height="0.672657665583105" width="1" x="60" y="0.327342334416895"></rect><rect fill="#2563EB" height="0.72156527129211" width="1" x="61" y="0.27843472870789"></rect><rect fill="#2563EB" height="0.8107013763179399" width="1" x="62" y="0.18929862368206007"></rect><rect fill="#2563EB" height="0.7235799458555339" width="1" x="63" y="0.27642005414446613"></rect><rect fill="#2563EB" height="0.7310561581271509" width="1" x="64" y="0.26894384187284914"></rect><rect fill="#2563EB" height="0.7302882952994499" width="1" x="65" y="0.26971170470055006"></rect><rect fill="#2563EB" height="0.7468248821146014" width="1" x="66" y="0.2531751178853986"></rect><rect fill="#2563EB" height="0.6612326620575688" width="1" x="67" y="0.3387673379424312"></rect><rect fill="#2563EB" height="0.7704703992226648" width="1" x="68" y="0.2295296007773352"></rect><rect fill="#2563EB" height="0.6444243837617512" width="1" x="69" y="0.35557561623824885"></rect><rect fill="#2563EB" height="0.5440704829377937" width="1" x="70" y="0.4559295170622063"></rect><rect fill="#2563EB" height="0.490118427509199" width="1" x="71" y="0.509881572490801"></rect><rect fill="#2563EB" height="0.361513120009302" width="1" x="72" y="0.638486879990698"></rect><rect fill="#2563EB" height="0.26021034572310314" width="1" x="73" y="0.7397896542768969"></rect><rect fill="#2563EB" height="0.2788289017397438" width="1" x="74" y="0.7211710982602562"></rect><rect fill="#2563EB" height="0.17705984571879582" width="1" x="75" y="0.8229401542812042"></rect><rect fill="#2563EB" height="0.3233410776736285" width="1" x="76" y="0.6766589223263715"></rect><rect fill="#2563EB" height="0.2710841233357543" width="1" x="77" y="0.7289158766642456"></rect><rect fill="#2563EB" height="0.15201535048933876" width="1" x="78" y="0.8479846495106612"></rect><rect fill="#2563EB" height="0.23582033764419943" width="1" x="79" y="0.7641796623558006"></rect><rect fill="#2563EB" height="0.39678612991909346" width="1" x="80" y="0.6032138700809065"></rect><rect fill="#2563EB" height="0.2159266143352457" width="1" x="81" y="0.7840733856647543"></rect><rect fill="#2563EB" height="0.14142042832408394" width="1" x="82" y="0.858579571675916"></rect><rect fill="#2563EB" height="0.24760021957652573" width="1" x="83" y="0.7523997804234743"></rect><rect fill="#2563EB" height="0.5434794757193788" width="1" x="84" y="0.4565205242806212"></rect><rect fill="#2563EB" height="0.29291059182051665" width="1" x="85" y="0.7070894081794834"></rect><rect fill="#2563EB" height="0.12830661862702802" width="1" x="86" y="0.8716933813729719"></rect><rect fill="#2563EB" height="0.1864013590037075" width="1" x="87" y="0.8135986409962925"></rect><rect fill="#2563EB" height="0.5081231308194162" width="1" x="88" y="0.4918768691805838"></rect><rect fill="#2563EB" height="0.39193834337441136" width="1" x="89" y="0.6080616566255886"></rect><rect fill="#2563EB" height="0.2132881878359162" width="1" x="90" y="0.7867118121640838"></rect><rect fill="#2563EB" height="0.2120913278458823" width="1" x="91" y="0.7879086721541178"></rect><rect fill="#2563EB" height="0.18614905534471712" width="1" x="92" y="0.8138509446552828"></rect><rect fill="#2563EB" height="0.16444646469073013" width="1" x="93" y="0.8355535353092699"></rect><rect fill="#2563EB" height="0.007306001914601153" width="1" x="94" y="0.9926939980853988"></rect><rect fill="#2563EB" height="0.00001258723778886812" width="1" x="95" y="0.9999874127622111"></rect><rect fill="#2563EB" height="0" width="1" x="96" y="1"></rect><rect fill="#2563EB" height="0" width="1" x="97" y="1"></rect><rect fill="#2563EB" height="0" width="1" x="98" y="1"></rect><rect fill="#2563EB" height="0" width="1" x="99" y="1"></rect></svg>