<svg xmlns="http://www.w3.org/2000/svg" preserveAspectRatio="none" viewBox="0 0 100 1"><rect fill="#2563EB" height="0.8201294916087062" width="1" x="0" y="0.17987050839129382"></rect><rect fill="#2563EB" height="0.8508582879952071" width="1" x="1" y="0.14914171200479287"></rect><rect fill="#2563EB" height="0.810974682224796" width="1" x="2" y="0.18902531777520404"></rect><rect fill="#2563EB" height="0.847006702915815" width="1" x="3" y="0.15299329708418496"></rect><rect fill="#2563EB" height="0.7858178204846771" width="1" x="4" y="0.21418217951532292"></rect><rect fill="#2563EB" height="0.9819589247844527" width="1" x="5" y="0.01804107521554732"></rect><rect fill="#2563EB" height="0.718455606952018" width="1" x="6" y="0.28154439304798196"></rect><rect fill="#2563EB" height="0.7805348599186491" width="1" x="7" y="0.21946514008135087"></rect><rect fill="#2563EB" height="0.8370926628479994" width="1" x="8" y="0.16290733715200056"></rect><rect fill="#2563EB" height="0.919123934828534" width="1" x="9" y="0.08087606517146595"></rect><rect fill="#2563EB" height="0.9026535352884282" width="1" x="10" y="0.09734646471157182"></rect><rect fill="#2563EB" height="0.7497990084184394" width="1" x="11" y="0.2502009915815606"></rect><rect fill="#2563EB" height="0.8760548871017667" width="1" x="12" y="0.12394511289823329"></rect><rect fill="#2563EB" height="0.8654969838990979" width="1" x="13" y="0.1345030161009021"></rect><rect fill="#2563EB" height="0.7420259933752515" width="1" x="14" y="0.25797400662474845"></rect><rect fill="#2563EB" height="0.7310981528662613" width="1" x="15" y="0.26890184713373866"></rect><rect fill="#2563EB" height="0.801837355626397" width="1" x="16" y="0.19816264437360298"></rect><rect fill="#2563EB" height="0.7875761847909162" width="1" x="17" y="0.21242381520908382"></rect><rect fill="#2563EB" height="0.7831834699805332" width="1" x="18" y="0.21681653001946677"></rect><rect fill="#2563EB" height="0.8278205646857969" width="1" x="19" y="0.1721794353142031"></rect><rect fill="#2563EB" height="0.9063994713534776" width="1" x="20" y="0.09360052864652235"></rect><rect fill="#2563EB" height="0.876716223799271" width="1" x="21" y="0.12328377620072895"></rect><rect fill="#2563EB" height="0.8642509913483822" width="1" x="22" y="0.13574900865161776"></rect><rect fill="#2563EB" height="0.8152670320062828" width="1" x="23" y="0.1847329679937172"></rect><rect fill="#2563EB" height="0.7506401849004709" width="1" x="24" y="0.2493598150995291"></rect><rect fill="#2563EB" height="0.7202326307254627" width="1" x="25" y="0.27976736927453727"></rect><rect fill="#2563EB" height="0.7397377614409317" width="1" x="26" y="0.26026223855906827"></rect><rect fill="#2563EB" height="0.750669602280752" width="1" x="27" y="0.24933039771924803"></rect><rect fill="#2563EB" height="0.8233635789494144" width="1" x="28" y="0.17663642105058563"></rect><rect fill="#2563EB" height="0.9456831989444247" width="1" x="29" y="0.05431680105557535"></rect><rect fill="#2563EB" height="0.8180876483941422" width="1" x="30" y="0.18191235160585784"></rect><rect fill="#2563EB" height="0.8784977480134272" width="1" x="31" y="0.12150225198657283"></rect><rect fill="#2563EB" height="0.7853066861027047" width="1" x="32" y="0.2146933138972953"></rect><rect fill="#2563EB" height="0.9948391042525903" width="1" x="33" y="0.005160895747409744"></rect><rect fill="#2563EB" height="0.9115044297022353" width="1" x="34" y="0.08849557029776467"></rect><rect fill="#2563EB" height="0.8964798871233206" width="1" x="35" y="0.1035201128766794"></rect><rect fill="#2563EB" height="0.9182931250598804" width="1" x="36" y="0.08170687494011963"></rect><rect fill="#2563EB" height="0.8629223716236822" width="1" x="37" y="0.13707762837631776"></rect><rect fill="#2563EB" height="0.8128117728595355" width="1" x="38" y="0.18718822714046446"></rect><rect fill="#2563EB" height="0.8677038152421874" width="1" x="39" y="0.13229618475781257"></rect><rect fill="#2563EB" height="0.757037205294391" width="1" x="40" y="0.242962794705609"></rect><rect fill="#2563EB" height="0.7829345192490011" width="1" x="41" y="0.21706548075099885"></rect><rect fill="#2563EB" height="0.7777204341615003" width="1" x="42" y="0.22227956583849973"></rect><rect fill="#2563EB" height="0.893986227731042" width="1" x="43" y="0.10601377226895803"></rect><rect fill="#2563EB" height="1" width="1" x="44" y="0"></rect><rect fill="#2563EB" height="0.7522950957828627" width="1" x="45" y="0.2477049042171373"></rect><rect fill="#2563EB" height="0.6870814082696137" width="1" x="46" y="0.3129185917303863"></rect><rect fill="#2563EB" height="0.8195021507724753" width="1" x="47" y="0.18049784922752465"></rect><rect fill="#2563EB" height="0.781327129289846" width="1" x="48" y="0.21867287071015395"></rect><rect fill="#2563EB" height="0.9105789618859725" width="1" x="49" y="0.08942103811402746"></rect><rect fill="#2563EB" height="0.8731249413666786" width="1" x="50" y="0.12687505863332138"></rect><rect fill="#2563EB" height="0.7323555309767181" width="1" x="51" y="0.2676444690232819"></rect><rect fill="#2563EB" height="0.8870050639116313" width="1" x="52" y="0.11299493608836875"></rect><rect fill="#2563EB" height="0.697318594986668" width="1" x="53" y="0.30268140501333196"></rect><rect fill="#2563EB" height="0.7202580620935908" width="1" x="54" y="0.2797419379064092"></rect><rect fill="#2563EB" height="0.7496415788495581" width="1" x="55" y="0.25035842115044193"></rect><rect fill="#2563EB" height="0.8488566993864759" width="1" x="56" y="0.1511433006135241"></rect><rect fill="#2563EB" height="0.96431359319746" width="1" x="57" y="0.03568640680253998"></rect><rect fill="#2563EB" height="0.7648013374398837" width="1" x="58" y="0.23519866256011634"></rect><rect fill="#2563EB" height="0.742743232797055" width="1" x="59" y="0.257256767202945"></rect><rect fill="#2563EB" height="0.8230260626885375" width="1" x="60" y="0.1769739373114625"></rect><rect fill="#2563EB" height="0.7790962902688094" width="1" x="61" y="0.22090370973119056"></rect><rect fill="#2563EB" height="0.8911062199416475" width="1" x="62" y="0.10889378005835249"></rect><rect fill="#2563EB" height="0.7739465622594861" width="1" x="63" y="0.2260534377405139"></rect><rect fill="#2563EB" height="0.8074468460434514" width="1" x="64" y="0.1925531539565486"></rect><rect fill="#2563EB" height="0.8106696504008822" width="1" x="65" y="0.18933034959911776"></rect><rect fill="#2563EB" height="0.6971212455092406" width="1" x="66" y="0.3028787544907594"></rect><rect fill="#2563EB" height="0.8819881329682694" width="1" x="67" y="0.11801186703173061"></rect><rect fill="#2563EB" height="0.8405981263915785" width="1" x="68" y="0.1594018736084215"></rect><rect fill="#2563EB" height="0.8130678959739188" width="1" x="69" y="0.18693210402608118"></rect><rect fill="#2563EB" height="0.813309566479023" width="1" x="70" y="0.18669043352097703"></rect><rect fill="#2563EB" height="0.7575191340269846" width="1" x="71" y="0.24248086597301544"></rect><rect fill="#2563EB" height="0.7668933577855316" width="1" x="72" y="0.23310664221446842"></rect><rect fill="#2563EB" height="0.9402553913766281" width="1" x="73" y="0.05974460862337194"></rect><rect fill="#2563EB" height="0.6980340842118549" width="1" x="74" y="0.30196591578814513"></rect><rect fill="#2563EB" height="0.857973929180573" width="1" x="75" y="0.14202607081942697"></rect><rect fill="#2563EB" height="0.8345527011170463" width="1" x="76" y="0.16544729888295373"></rect><rect fill="#2563EB" height="0.691094962439345" width="1" x="77" y="0.308905037560655"></rect><rect fill="#2563EB" height="0.7510438118459125" width="1" x="78" y="0.2489561881540875"></rect><rect fill="#2563EB" height="0.8463643515131858" width="1" x="79" y="0.1536356484868142"></rect><rect fill="#2563EB" height="0.7572698618418275" width="1" x="80" y="0.24273013815817246"></rect><rect fill="#2563EB" height="0.9982678923755548" width="1" x="81" y="0.0017321076244452005"></rect><rect fill="#2563EB" height="0.8284119901827323" width="1" x="82" y="0.17158800981726774"></rect><rect fill="#2563EB" height="0.8650506960783454" width="1" x="83" y="0.1349493039216546"></rect><rect fill="#2563EB" height="0.8739486134661484" width="1" x="84" y="0.12605138653385162"></rect><rect fill="#2563EB" height="0.750887386837596" width="1" x="85" y="0.24911261316240396"></rect><rect fill="#2563EB" height="0.7487769629525614" width="1" x="86" y="0.25122303704743865"></rect><rect fill="#2563EB" height="0.7986243985753547" width="1" x="87" y="0.20137560142464528"></rect><rect fill="#2563EB" height="0.9027591668586775" width="1" x="88" y="0.09724083314132248"></rect><rect fill="#2563EB" height="0.9763869439493208" width="1" x="89" y="0.023613056050679204"></rect><rect fill="#2563EB" height="0.8281055106534854" width="1" x="90" y="0.17189448934651463"></rect><rect fill="#2563EB" height="0.8888297210197516" width="1" x="91" y="0.11117027898024845"></rect><rect fill="#2563EB" height="0.8907517672309482" width="1" x="92" y="0.10924823276905182"></rect><rect fill="#2563EB" height="0.7435150876285851" width="1" x="93" y="0.2564849123714149"></rect><rect fill="#2563EB" height="0.8716557524365148" width="1" x="94" y="0.12834424756348517"></rect><rect fill="#2563EB" height="0.8524078599699407" width="1" x="95" y="0.14759214003005927"></rect><rect fill="#2563EB" height="0.9125291731534209" width="1" x="96" y="0.08747082684657914"></rect><rect fill="#2563EB" height="0.13573330740072825" width="1" x="97" y="0.8642666925992717"></rect><rect fill="#2563EB" height="0.014625051531569414" width="1" x="98" y="0.9853749484684305"></rect><rect fill="#2563EB" height="1.489541692593935e-8" width="1" x="99" y="0.9999999851045831"></rect></svg>