<svg xmlns="http://www.w3.org/2000/svg" preserveAspectRatio="none" viewBox="0 0 100 1"><rect fill="#2563EB" height="0.00005068783668994875" width="1" x="0" y="0.9999493121633101"></rect><rect fill="#2563EB" height="0.609150486019314" width="1" x="1" y="0.390849513980686"></rect><rect fill="#2563EB" height="0.6466597496682222" width="1" x="2" y="0.35334025033177785"></rect><rect fill="#2563EB" height="0.785387887266629" width="1" x="3" y="0.214612112733371"></rect><rect fill="#2563EB" height="0.6777510788694279" width="1" x="4" y="0.32224892113057213"></rect><rect fill="#2563EB" height="0.767707091422863" width="1" x="5" y="0.23229290857713703"></rect><rect fill="#2563EB" height="0.6864457912711032" width="1" x="6" y="0.31355420872889683"></rect><rect fill="#2563EB" height="0.7116158372037272" width="1" x="7" y="0.28838416279627277"></rect><rect fill="#2563EB" height="0.7668411321362829" width="1" x="8" y="0.2331588678637171"></rect><rect fill="#2563EB" height="0.8005760991252721" width="1" x="9" y="0.19942390087472794"></rect><rect fill="#2563EB" height="0.8539629972031367" width="1" x="10" y="0.14603700279686327"></rect><rect fill="#2563EB" height="0.7506912289005755" width="1" x="11" y="0.2493087710994245"></rect><rect fill="#2563EB" height="0.8779224100097291" width="1" x="12" y="0.12207758999027085"></rect><rect fill="#2563EB" height="0.766132027195823" width="1" x="13" y="0.23386797280417704"></rect><rect fill="#2563EB" height="0.8579239447493139" width="1" x="14" y="0.14207605525068612"></rect><rect fill="#2563EB" height="0.8178983082009263" width="1" x="15" y="0.18210169179907365"></rect><rect fill="#2563EB" height="0.9337388029639794" width="1" x="16" y="0.06626119703602062"></rect><rect fill="#2563EB" height="0.9220399521922167" width="1" x="17" y="0.07796004780778332"></rect><rect fill="#2563EB" height="0.900794548035294" width="1" x="18" y="0.09920545196470598"></rect><rect fill="#2563EB" height="0.9101323889007411" width="1" x="19" y="0.08986761109925889"></rect><rect fill="#2563EB" height="0.9186891913512267" width="1" x="20" y="0.08131080864877327"></rect><rect fill="#2563EB" height="0.9622473947806452" width="1" x="21" y="0.03775260521935475"></rect><rect fill="#2563EB" height="0.9436967889658507" width="1" x="22" y="0.05630321103414926"></rect><rect fill="#2563EB" height="0.8917954981802841" width="1" x="23" y="0.10820450181971586"></rect><rect fill="#2563EB" height="0.9519213218038909" width="1" x="24" y="0.048078678196109115"></rect><rect fill="#2563EB" height="0.936771511843954" width="1" x="25" y="0.06322848815604598"></rect><rect fill="#2563EB" height="0.9576949787263417" width="1" x="26" y="0.042305021273658316"></rect><rect fill="#2563EB" height="0.9217950221144525" width="1" x="27" y="0.07820497788554748"></rect><rect fill="#2563EB" height="0.9490875443991134" width="1" x="28" y="0.05091245560088664"></rect><rect fill="#2563EB" height="0.9395818892479092" width="1" x="29" y="0.0604181107520908"></rect><rect fill="#2563EB" height="0.9270256622643174" width="1" x="30" y="0.07297433773568263"></rect><rect fill="#2563EB" height="0.9184811799826823" width="1" x="31" y="0.0815188200173177"></rect><rect fill="#2563EB" height="0.9203412630746636" width="1" x="32" y="0.07965873692533643"></rect><rect fill="#2563EB" height="0.9908846278293038" width="1" x="33" y="0.009115372170696245"></rect><rect fill="#2563EB" height="0.9389181574963662" width="1" x="34" y="0.0610818425036338"></rect><rect fill="#2563EB" height="0.9808142327438647" width="1" x="35" y="0.0191857672561353"></rect><rect fill="#2563EB" height="0.9915920852330311" width="1" x="36" y="0.008407914766968894"></rect><rect fill="#2563EB" height="0.9454253483937203" width="1" x="37" y="0.05457465160627972"></rect><rect fill="#2563EB" height="0.9274456248743517" width="1" x="38" y="0.07255437512564833"></rect><rect fill="#2563EB" height="0.9150936675982831" width="1" x="39" y="0.08490633240171686"></rect><rect fill="#2563EB" height="0.9822303775089555" width="1" x="40" y="0.017769622491044523"></rect><rect fill="#2563EB" height="0.9421303396081026" width="1" x="41" y="0.05786966039189745"></rect><rect fill="#2563EB" height="0.9613621737085961" width="1" x="42" y="0.03863782629140389"></rect><rect fill="#2563EB" height="0.9240758072848092" width="1" x="43" y="0.0759241927151908"></rect><rect fill="#2563EB" height="0.9676627436807276" width="1" x="44" y="0.03233725631927242"></rect><rect fill="#2563EB" height="0.9301333331749155" width="1" x="45" y="0.06986666682508447"></rect><rect fill="#2563EB" height="0.9154325945375767" width="1" x="46" y="0.08456740546242325"></rect><rect fill="#2563EB" height="0.9853985016230863" width="1" x="47" y="0.014601498376913713"></rect><rect fill="#2563EB" height="0.9507545751199569" width="1" x="48" y="0.04924542488004313"></rect><rect fill="#2563EB" height="0.9549469134693715" width="1" x="49" y="0.04505308653062845"></rect><rect fill="#2563EB" height="0.9434956895824844" width="1" x="50" y="0.05650431041751558"></rect><rect fill="#2563EB" height="0.4845676727896647" width="1" x="51" y="0.5154323272103353"></rect><rect fill="#2563EB" height="0.3926068511113682" width="1" x="52" y="0.6073931488886317"></rect><rect fill="#2563EB" height="0.42646705294348525" width="1" x="53" y="0.5735329470565147"></rect><rect fill="#2563EB" height="0.41646457134077447" width="1" x="54" y="0.5835354286592256"></rect><rect fill="#2563EB" height="0.412671698596899" width="1" x="55" y="0.587328301403101"></rect><rect fill="#2563EB" height="0.439056444287666" width="1" x="56" y="0.560943555712334"></rect><rect fill="#2563EB" height="0.37930361443457866" width="1" x="57" y="0.6206963855654213"></rect><rect fill="#2563EB" height="0.9397444379196365" width="1" x="58" y="0.060255562080363534"></rect><rect fill="#2563EB" height="0.8852784049290956" width="1" x="59" y="0.1147215950709044"></rect><rect fill="#2563EB" height="0.9099880292285678" width="1" x="60" y="0.09001197077143219"></rect><rect fill="#2563EB" height="0.8737766830165453" width="1" x="61" y="0.12622331698345468"></rect><rect fill="#2563EB" height="0.8637648542139418" width="1" x="62" y="0.13623514578605822"></rect><rect fill="#2563EB" height="0.9388817439233036" width="1" x="63" y="0.06111825607669641"></rect><rect fill="#2563EB" height="1" width="1" x="64" y="0"></rect><rect fill="#2563EB" height="0.9585059414160776" width="1" x="65" y="0.04149405858392241"></rect><rect fill="#2563EB" height="0.9043555068259811" width="1" x="66" y="0.09564449317401891"></rect><rect fill="#2563EB" height="0.8965690515657424" width="1" x="67" y="0.1034309484342576"></rect><rect fill="#2563EB" height="0.9354652099859955" width="1" x="68" y="0.06453479001400453"></rect><rect fill="#2563EB" height="0.8720282205706262" width="1" x="69" y="0.12797177942937377"></rect><rect fill="#2563EB" height="0.8974866637278864" width="1" x="70" y="0.10251333627211356"></rect><rect fill="#2563EB" height="0.9067117222792447" width="1" x="71" y="0.09328827772075532"></rect><rect fill="#2563EB" height="0.9015389254828358" width="1" x="72" y="0.09846107451716424"></rect><rect fill="#2563EB" height="0.8520217093577719" width="1" x="73" y="0.14797829064222812"></rect><rect fill="#2563EB" height="0.8661500257790022" width="1" x="74" y="0.13384997422099776"></rect><rect fill="#2563EB" height="0.9152003664215416" width="1" x="75" y="0.08479963357845843"></rect><rect fill="#2563EB" height="0.8687616500735851" width="1" x="76" y="0.13123834992641492"></rect><rect fill="#2563EB" height="0.9246964740582517" width="1" x="77" y="0.07530352594174827"></rect><rect fill="#2563EB" height="0.8841680868077465" width="1" x="78" y="0.1158319131922535"></rect><rect fill="#2563EB" height="0.9054343576198963" width="1" x="79" y="0.09456564238010368"></rect><rect fill="#2563EB" height="0.8912835019488203" width="1" x="80" y="0.10871649805117967"></rect><rect fill="#2563EB" height="0.897983619336719" width="1" x="81" y="0.102016380663281"></rect><rect fill="#2563EB" height="0.9056984415759223" width="1" x="82" y="0.09430155842407772"></rect><rect fill="#2563EB" height="0.9021276183005772" width="1" x="83" y="0.0978723816994228"></rect><rect fill="#2563EB" height="0.9475449391457954" width="1" x="84" y="0.052455060854204594"></rect><rect fill="#2563EB" height="0.9411973817870983" width="1" x="85" y="0.05880261821290167"></rect><rect fill="#2563EB" height="0.9253800076292846" width="1" x="86" y="0.07461999237071537"></rect><rect fill="#2563EB" height="0.9021384791090303" width="1" x="87" y="0.09786152089096967"></rect><rect fill="#2563EB" height="0.9262869839407701" width="1" x="88" y="0.07371301605922986"></rect><rect fill="#2563EB" height="0.9288496681118142" width="1" x="89" y="0.07115033188818576"></rect><rect fill="#2563EB" height="0.9317253164075067" width="1" x="90" y="0.06827468359249333"></rect><rect fill="#2563EB" height="0.9496300548303868" width="1" x="91" y="0.05036994516961324"></rect><rect fill="#2563EB" height="0.9541061537078838" width="1" x="92" y="0.045893846292116236"></rect><rect fill="#2563EB" height="0.9185478139115851" width="1" x="93" y="0.08145218608841487"></rect><rect fill="#2563EB" height="0.9241010306951137" width="1" x="94" y="0.07589896930488627"></rect><rect fill="#2563EB" height="0.9382833410155801" width="1" x="95" y="0.061716658984419914"></rect><rect fill="#2563EB" height="0.9565789118934435" width="1" x="96" y="0.04342108810655654"></rect><rect fill="#2563EB" height="0.5958380775875036" width="1" x="97" y="0.4041619224124964"></rect><rect fill="#2563EB" height="0.21972595445143395" width="1" x="98" y="0.780274045548566"></rect><rect fill="#2563EB" height="0.030446771455458967" width="1" x="99" y="0.9695532285445411"></rect></svg>